<svg width="16" height="16" fill="transparent" viewBox="0 0 16 16" xmlns="http://www.w3.org/2000/svg">
<rect width="16" height="16" style="mix-blend-mode:multiply"/>
<path d="M7 14.0002H4V2.00017H8V5.00017C8.00077 5.26515 8.10637 5.51906 8.29374 5.70643C8.48111 5.8938 8.73502 5.99941 9 6.00017H12V9.00017H13V5.00017C13.0018 4.93446 12.9893 4.86913 12.9634 4.80871C12.9375 4.74828 12.8988 4.6942 12.85 4.65017L9.35 1.15017C9.30599 1.10134 9.2519 1.06263 9.19147 1.03674C9.13104 1.01084 9.06572 0.998364 9 1.00017H4C3.73502 1.00094 3.48111 1.10654 3.29374 1.29391C3.10637 1.48128 3.00077 1.73519 3 2.00017V14.0002C3.00077 14.2652 3.10637 14.5191 3.29374 14.7064C3.48111 14.8938 3.73502 14.9994 4 15.0002H7V14.0002ZM9 2.20017L11.8 5.00017H9V2.20017Z" fill="currentColor"/>
<path d="M9.31934 12.9213L9.31929 12.9214L9.3224 12.9238C9.39714 12.9826 9.44009 13.0711 9.44009 13.2071V14.5434C9.44009 14.6933 9.48338 14.8251 9.5753 14.9312C9.6736 15.0486 9.81674 15.1 9.98552 15.1H10.2778C10.4299 15.1 10.5532 14.9767 10.5532 14.8246C10.5532 14.6725 10.4299 14.5492 10.2778 14.5492H10.1888C10.0979 14.5492 10.0243 14.4756 10.0243 14.3847V13.2572C10.0243 13.0627 9.96806 12.8878 9.85487 12.7363C9.78036 12.6307 9.68877 12.5514 9.58098 12.5003C9.68846 12.4502 9.78004 12.3727 9.85472 12.2694C9.96778 12.1145 10.0243 11.9378 10.0243 11.7428V10.6153C10.0243 10.5244 10.0979 10.4508 10.1888 10.4508H10.2778C10.4299 10.4508 10.5532 10.3275 10.5532 10.1754C10.5532 10.0233 10.4299 9.9 10.2778 9.9H9.98552C9.81674 9.9 9.67361 9.95138 9.57531 10.0688C9.48338 10.1749 9.44009 10.3067 9.44009 10.4566V11.7929C9.44009 11.9287 9.39718 12.0202 9.32086 12.083C9.28112 12.1153 9.23561 12.1399 9.18349 12.1567C9.04755 12.2003 8.9 12.319 8.9 12.5C8.9 12.681 9.04782 12.7993 9.18201 12.8443C9.23391 12.8616 9.27941 12.8873 9.31934 12.9213ZM13.2468 12.9227L13.2471 12.9225C13.2894 12.8877 13.337 12.8616 13.3906 12.844C13.5259 12.7997 13.6733 12.6808 13.6733 12.5C13.6733 12.3192 13.5261 12.1999 13.3891 12.1569C13.336 12.1402 13.2888 12.1155 13.247 12.083C13.1747 12.0206 13.1333 11.9291 13.1333 11.7929V10.4566C13.1333 10.3067 13.09 10.1749 12.998 10.0688C12.8997 9.95139 12.7566 9.9 12.5878 9.9H12.2955C12.1434 9.9 12.0201 10.0233 12.0201 10.1754C12.0201 10.3275 12.1434 10.4508 12.2955 10.4508H12.3846C12.4754 10.4508 12.5491 10.5244 12.5491 10.6153V11.7428C12.5491 11.9369 12.6032 12.1131 12.712 12.268L12.712 12.268L12.7138 12.2705C12.7908 12.3731 12.8838 12.4503 12.9918 12.5003C12.8832 12.5514 12.79 12.6307 12.7131 12.7362L12.7128 12.7366C12.6032 12.8883 12.5491 13.0631 12.5491 13.2572V14.3847C12.5491 14.4756 12.4754 14.5492 12.3846 14.5492H12.2955C12.1434 14.5492 12.0201 14.6725 12.0201 14.8246C12.0201 14.9767 12.1434 15.1 12.2955 15.1H12.5878C12.7566 15.1 12.8997 15.0486 12.998 14.9312C13.09 14.8251 13.1333 14.6933 13.1333 14.5434V13.2071C13.1333 13.0698 13.1752 12.981 13.2468 12.9227Z" fill="currentColor" stroke="transparent" stroke-width="0.2"/>
</svg>
