<svg width="16" height="16" viewBox="0 0 16 16" fill="none" xmlns="http://www.w3.org/2000/svg">
<path d="M13.7146 4.78571L14.4307 3.31429L16 2.64286L14.4307 1.97143L13.7146 0.5L12.9984 1.97143L11.4291 2.64286L12.9984 3.31429L13.7146 4.78571ZM4.95367 4.78571L5.66977 3.31429L7.23912 2.64286L5.66977 1.97143L4.95367 0.5L4.23756 1.97143L2.66822 2.64286L4.23756 3.31429L4.95367 4.78571ZM13.7146 8.71429L12.9984 10.1857L11.4291 10.8571L12.9984 11.5286L13.7146 13L14.4307 11.5286L16 10.8571L14.4307 10.1857L13.7146 8.71429ZM11.97 6.3L9.81405 4.27857C9.66169 4.14286 9.47124 4.07143 9.27316 4.07143C9.07509 4.07143 8.88464 4.14286 8.73228 4.27857L0.222789 12.2571C0.152165 12.3232 0.0961358 12.4017 0.0579067 12.4881C0.0196777 12.5745 0 12.6672 0 12.7607C0 12.8543 0.0196777 12.9469 0.0579067 13.0333C0.0961358 13.1197 0.152165 13.1982 0.222789 13.2643L2.37873 15.2857C2.53109 15.4286 2.72155 15.5 2.91962 15.5C3.11769 15.5 3.30814 15.4286 3.46051 15.2929L11.97 7.31429C12.2671 7.03571 12.2671 6.57857 11.97 6.3V6.3ZM9.27316 5.8L10.3473 6.80714L9.456 7.64286L8.38184 6.63571L9.27316 5.8V5.8ZM2.91962 13.7786L1.84546 12.7714L7.30768 7.64286L8.38184 8.65L2.91962 13.7786Z" fill="#ECECEC"/>
</svg>
