<svg width="15" height="12" viewBox="0 0 15 12" fill="currentColor" xmlns="http://www.w3.org/2000/svg">
<path d="M4.26265 9.11294L5.13761 8.09613L2.32094 6.00065L5.13761 3.90518L4.26265 2.88836L0.762816 5.49224C0.680812 5.55323 0.614611 5.63059 0.569116 5.7186C0.523622 5.8066 0.5 5.903 0.5 6.00065C0.5 6.0983 0.523622 6.1947 0.569116 6.28271C0.614611 6.37071 0.680812 6.44807 0.762816 6.50906L4.26265 9.11294ZM10.7373 2.88836L9.86239 3.90518L12.6791 6.00065L9.86239 8.09613L10.7373 9.11294L14.2372 6.50906C14.3192 6.44807 14.3854 6.37071 14.4309 6.28271C14.4764 6.1947 14.5 6.0983 14.5 6.00065C14.5 5.903 14.4764 5.8066 14.4309 5.7186C14.3854 5.63059 14.3192 5.55323 14.2372 5.49224L10.7373 2.88836ZM9.5831 0.282521L6.78323 12L5.4162 11.7175L8.21607 0L9.5831 0.282521Z" fill="currentColor"/>
</svg>
