<svg width="15" height="15" viewBox="0 0 15 15" fill="currentColor" xmlns="http://www.w3.org/2000/svg">
<path d="M1.07143 2.07264V12.799H13.9286V4.21791H7.06071L4.91357 2.07264H1.07143ZM0.535714 1H5.355L7.50429 3.14527H14.4643C14.6064 3.14527 14.7426 3.20177 14.8431 3.30235C14.9436 3.40293 15 3.53935 15 3.68159V13.3353C15 13.4775 14.9436 13.614 14.8431 13.7145C14.7426 13.8151 14.6064 13.8716 14.4643 13.8716H0.535714C0.393634 13.8716 0.257373 13.8151 0.156907 13.7145C0.0564411 13.614 0 13.4775 0 13.3353V1.53632C0 1.39408 0.0564411 1.25766 0.156907 1.15708C0.257373 1.0565 0.393634 1 0.535714 1V1ZM6.96429 7.97213V5.82686H8.03571V7.97213H10.1786V9.04476H8.03571V11.19H6.96429V9.04476H4.82143V7.97213H6.96429Z"/>
</svg>
