<svg width="313" height="33" viewBox="0 0 313 33" fill="none" xmlns="http://www.w3.org/2000/svg">
<path d="M0 1H14.2164C17.0597 1 19.3532 1.26525 21.0971 1.79574C22.841 2.32623 24.4332 3.48194 25.8738 5.26288C28.2243 8.18058 29.3995 11.894 29.3995 16.4032C29.3995 22.2765 27.8262 26.7099 24.6797 29.7034C22.3671 31.9011 18.8035 33 13.9889 33H0V30.3286H4.49238V3.6714H0V1ZM14.2733 3.6714H7.33566V30.3286H13.9889C17.8558 30.3286 20.6991 29.4381 22.5188 27.6572C25.0588 25.1184 26.3288 21.4239 26.3288 16.5737C26.3288 12.8982 25.4379 9.82889 23.6561 7.3659C22.5567 5.81231 21.3246 4.80817 19.9598 4.35346C18.595 3.89876 16.6995 3.6714 14.2733 3.6714Z" fill="#00ABF5"/>
<path d="M33.9533 1H46.1794L58.178 30.3286H61.0782V33H49.4207V30.3286H55.221L51.9797 22.4281H37.1378L33.9533 30.3286H39.7536V33H28.0961V30.3286H31.11L42.0851 3.6714H33.9533V1ZM51.013 19.9272L44.5872 4.35346L38.1613 19.9272H51.013Z" fill="#00ABF5"/>
<path d="M60.4003 1H87.6958L88.6625 14.4139L85.933 14.7549L85.1369 3.6714H75.4697V30.3286H82.3504V33H65.7457V30.3286H72.6264V3.6714H62.9593L62.1632 14.7549L59.4336 14.4139L60.4003 1Z" fill="#00ABF5"/>
<path d="M92.8751 1H105.101L117.1 30.3286H120V33H108.343V30.3286H114.143L110.902 22.4281H96.0596L92.8751 30.3286H98.6754V33H87.018V30.3286H90.0318L101.007 3.6714H92.8751V1ZM109.935 19.9272L103.509 4.35346L97.0832 19.9272H109.935Z" fill="#00ABF5"/>
<path d="M141.587 16.6415H142.613L147.857 0H158.801V4.64151H155.267L155.609 28.3585H158.915V33H144.836V28.3585H150.821L150.536 8.20755H149.852L144.437 24.283H139.421L134.063 8.20755H133.379L133.094 28.3585H139.079V33H125V28.3585H128.306L128.648 4.64151H125V0H135.944L141.587 16.6415Z" fill="#00ABF5"/>
<path d="M165.896 0H179.633L191.204 28.3585H194.396V33H180.887V28.3585H185.903L183.68 22.8113H170.855L168.632 28.3585H173.705V33H160.196V28.3585H163.502L173.249 4.64151H165.896V0ZM181.856 18.1698L177.296 7.35849L172.793 18.1698H181.856Z" fill="#00ABF5"/>
<path d="M195.511 0H209.133C213.009 0 215.897 0.528302 217.797 1.58491C219.393 2.45283 220.685 3.73585 221.673 5.43396C222.661 7.09434 223.155 8.84906 223.155 10.6981C223.155 12.3585 222.718 14 221.844 15.6226C221.008 17.2075 219.944 18.3585 218.652 19.0755C217.17 19.9057 215.707 20.434 214.263 20.6604C212.857 20.8491 210.387 20.9434 206.853 20.9434H204.858V28.3585H212.952V33H195.511V28.3585H199.9V4.64151H195.511V0ZM209.19 4.64151H204.858V16.3019H206.91C209.684 16.3019 211.622 16.2075 212.724 16.0189C213.864 15.8302 214.833 15.5283 215.631 15.1132C216.163 14.8491 216.676 14.3019 217.17 13.4717C217.664 12.6038 217.911 11.6226 217.911 10.5283C217.911 9.43396 217.645 8.43396 217.113 7.5283C216.581 6.62264 215.954 5.98113 215.232 5.60377C214.054 4.96226 212.04 4.64151 209.19 4.64151Z" fill="#00ABF5"/>
<path d="M222.706 0H236.329C240.205 0 243.093 0.528302 244.993 1.58491C246.589 2.45283 247.881 3.73585 248.869 5.43396C249.857 7.09434 250.351 8.84906 250.351 10.6981C250.351 12.3585 249.914 14 249.04 15.6226C248.204 17.2075 247.14 18.3585 245.848 19.0755C244.366 19.9057 242.903 20.434 241.459 20.6604C240.053 20.8491 237.583 20.9434 234.049 20.9434H232.054V28.3585H240.148V33H222.706V28.3585H227.095V4.64151H222.706V0ZM236.386 4.64151H232.054V16.3019H234.106C236.88 16.3019 238.818 16.2075 239.92 16.0189C241.06 15.8302 242.029 15.5283 242.827 15.1132C243.359 14.8491 243.872 14.3019 244.366 13.4717C244.86 12.6038 245.107 11.6226 245.107 10.5283C245.107 9.43396 244.841 8.43396 244.309 7.5283C243.777 6.62264 243.15 5.98113 242.428 5.60377C241.25 4.96226 239.236 4.64151 236.386 4.64151Z" fill="#00ABF5"/>
<path d="M251.352 0H279.737L280.022 12.2264H275.291L274.778 4.64151H261.042V13.3019H267.768V9.22642H272.498V21.9623H267.768V17.9434H261.042V28.3585H275.291L275.576 20.717H280.307V33H251.352V28.3585H256.083V4.64151H251.352V0Z" fill="#00ABF5"/>
<path d="M281.479 0H296.698C298.75 0 300.346 0.113208 301.486 0.339623C302.664 0.528302 303.785 0.981132 304.849 1.69811C305.951 2.45283 306.844 3.5283 307.528 4.92453C308.25 6.32075 308.611 7.77359 308.611 9.28302C308.611 9.69811 308.592 10.0943 308.554 10.4717C308.516 10.8491 308.364 11.4717 308.098 12.3396C307.832 13.1698 307.471 13.9245 307.015 14.6038C306.559 15.2453 305.818 15.9245 304.792 16.6415C303.804 17.3585 302.626 17.9245 301.258 18.3396C302.74 20.3774 304.868 23.717 307.642 28.3585H313V33H304.222C302.626 29.566 300.783 26.283 298.693 23.1509C297.477 21.3396 296.584 20.1887 296.014 19.6981C295.444 19.1698 294.703 18.9057 293.791 18.9057H290.884V28.3585H295.843V33H281.479V28.3585H285.925V4.64151H281.479V0ZM296.698 4.64151H290.884V14.2642H295.102C298.104 14.2642 300.213 13.8679 301.429 13.0755C302.721 12.2075 303.367 10.8868 303.367 9.11321C303.367 7.37736 302.816 6.20755 301.714 5.60377C300.65 4.96226 298.978 4.64151 296.698 4.64151Z" fill="#00ABF5"/>
</svg>
