<svg width="16" height="16" viewBox="0 0 16 16" fill="none" xmlns="http://www.w3.org/2000/svg">
<rect width="16" height="16" rx="3" fill="white"/>
<path d="M12.7619 3.35731H11.2143V2.64303C11.2143 2.54831 11.1768 2.45744 11.1098 2.39042C11.0429 2.3234 10.9521 2.28571 10.8574 2.28564C10.7627 2.28558 10.6718 2.32315 10.6048 2.39008C10.5377 2.45701 10.5001 2.54783 10.5 2.64255V3.35731H8.35713V2.64303C8.35717 2.59612 8.34796 2.54968 8.33004 2.50633C8.31212 2.46299 8.28584 2.4236 8.2527 2.39042C8.21956 2.35723 8.1802 2.3309 8.13688 2.31292C8.09357 2.29494 8.04713 2.28568 8.00023 2.28564C7.90551 2.28558 7.81464 2.32315 7.74762 2.39008C7.6806 2.45701 7.64291 2.54783 7.64285 2.64255V3.35731H5.49999V2.64303C5.50002 2.59612 5.49082 2.54968 5.4729 2.50633C5.45498 2.46299 5.4287 2.4236 5.39555 2.39042C5.36241 2.35723 5.32306 2.3309 5.27974 2.31292C5.23642 2.29494 5.18999 2.28568 5.14309 2.28564C5.04837 2.28558 4.9575 2.32315 4.89048 2.39008C4.82346 2.45701 4.78577 2.54783 4.78571 2.64255V3.35731H3.23809C2.98558 3.35731 2.74341 3.45759 2.56482 3.63609C2.38623 3.81459 2.28583 4.05671 2.28571 4.30922V12.7616C2.28571 13.0142 2.38605 13.2564 2.56465 13.435C2.74326 13.6136 2.9855 13.714 3.23809 13.714H12.7619C13.0145 13.714 13.2567 13.6136 13.4353 13.435C13.6139 13.2564 13.7143 13.0142 13.7143 12.7616V4.30922C13.7142 4.05671 13.6138 3.81459 13.4352 3.63609C13.2566 3.45759 13.0144 3.35731 12.7619 3.35731V3.35731ZM13 12.7621C13 12.8251 12.975 12.8856 12.9304 12.9303C12.8859 12.9749 12.8254 13 12.7624 13.0002H3.23809C3.17494 13.0002 3.11438 12.9751 3.06973 12.9304C3.02508 12.8858 2.99999 12.8252 2.99999 12.7621V4.30969C3.00012 4.24663 3.02526 4.18619 3.0699 4.14164C3.11453 4.09709 3.17502 4.07207 3.23809 4.07207H4.78571V4.78636C4.78564 4.88108 4.82321 4.97195 4.89014 5.03897C4.95707 5.10599 5.04789 5.14368 5.14261 5.14374C5.23733 5.1438 5.3282 5.10624 5.39522 5.0393C5.46224 4.97237 5.49993 4.88156 5.49999 4.78684V4.07207H7.64285V4.78636C7.64279 4.88108 7.68035 4.97195 7.74728 5.03897C7.81422 5.10599 7.90503 5.14368 7.99975 5.14374C8.09447 5.1438 8.18534 5.10624 8.25236 5.0393C8.31938 4.97237 8.35707 4.88156 8.35713 4.78684V4.07207H10.5V4.78636C10.4999 4.88108 10.5375 4.97195 10.6044 5.03897C10.6714 5.10599 10.7622 5.14368 10.8569 5.14374C10.9516 5.1438 11.0425 5.10624 11.1095 5.0393C11.1765 4.97237 11.2142 4.88156 11.2143 4.78684V4.07207H12.7619C12.8249 4.0722 12.8852 4.09727 12.9298 4.14181C12.9743 4.18634 12.9994 4.24671 12.9995 4.30969L13 12.7621Z" fill="#2C718E"/>
<path d="M4.78571 7.10725C4.78571 6.81138 5.02555 6.57153 5.32142 6.57153H5.67856C5.97443 6.57153 6.21428 6.81138 6.21428 7.10725V7.10725C6.21428 7.40311 5.97443 7.64296 5.67856 7.64296H5.32142C5.02555 7.64296 4.78571 7.40311 4.78571 7.10725V7.10725ZM4.78571 8.89296C4.78571 8.59709 5.02555 8.35725 5.32142 8.35725H5.67856C5.97443 8.35725 6.21428 8.59709 6.21428 8.89296V8.89296C6.21428 9.18883 5.97443 9.42868 5.67856 9.42868H5.32142C5.02555 9.42868 4.78571 9.18883 4.78571 8.89296V8.89296ZM4.78571 10.6787C4.78571 10.3828 5.02555 10.143 5.32142 10.143H5.67856C5.97443 10.143 6.21428 10.3828 6.21428 10.6787V10.6787C6.21428 10.9745 5.97443 11.2144 5.67856 11.2144H5.32142C5.02555 11.2144 4.78571 10.9745 4.78571 10.6787V10.6787ZM7.28571 10.6787C7.28571 10.3828 7.52555 10.143 7.82142 10.143H8.17856C8.47443 10.143 8.71428 10.3828 8.71428 10.6787V10.6787C8.71428 10.9745 8.47443 11.2144 8.17856 11.2144H7.82142C7.52555 11.2144 7.28571 10.9745 7.28571 10.6787V10.6787ZM7.28571 8.89296C7.28571 8.59709 7.52555 8.35725 7.82142 8.35725H8.17856C8.47443 8.35725 8.71428 8.59709 8.71428 8.89296V8.89296C8.71428 9.18883 8.47443 9.42868 8.17856 9.42868H7.82142C7.52555 9.42868 7.28571 9.18883 7.28571 8.89296V8.89296ZM7.28571 7.10725C7.28571 6.81138 7.52555 6.57153 7.82142 6.57153H8.17856C8.47443 6.57153 8.71428 6.81138 8.71428 7.10725V7.10725C8.71428 7.40311 8.47443 7.64296 8.17856 7.64296H7.82142C7.52555 7.64296 7.28571 7.40311 7.28571 7.10725V7.10725ZM9.78571 10.6787C9.78571 10.3828 10.0256 10.143 10.3214 10.143H10.6786C10.9744 10.143 11.2143 10.3828 11.2143 10.6787V10.6787C11.2143 10.9745 10.9744 11.2144 10.6786 11.2144H10.3214C10.0256 11.2144 9.78571 10.9745 9.78571 10.6787V10.6787ZM9.78571 8.89296C9.78571 8.59709 10.0256 8.35725 10.3214 8.35725H10.6786C10.9744 8.35725 11.2143 8.59709 11.2143 8.89296V8.89296C11.2143 9.18883 10.9744 9.42868 10.6786 9.42868H10.3214C10.0256 9.42868 9.78571 9.18883 9.78571 8.89296V8.89296ZM9.78571 7.10725C9.78571 6.81138 10.0256 6.57153 10.3214 6.57153H10.6786C10.9744 6.57153 11.2143 6.81138 11.2143 7.10725V7.10725C11.2143 7.40311 10.9744 7.64296 10.6786 7.64296H10.3214C10.0256 7.64296 9.78571 7.40311 9.78571 7.10725V7.10725Z" fill="#2C718E"/>
</svg>
