<svg width="16" height="16" viewBox="0 0 16 16" fill="none" xmlns="http://www.w3.org/2000/svg">
<path d="M12.762 3.35731H11.2143V2.64303C11.2144 2.54831 11.1768 2.45744 11.1099 2.39042C11.043 2.3234 10.9522 2.28571 10.8574 2.28564C10.7627 2.28558 10.6718 2.32315 10.6048 2.39008C10.5378 2.45701 10.5001 2.54783 10.5001 2.64255V3.35731H8.3572V2.64303C8.35723 2.59612 8.34802 2.54968 8.3301 2.50633C8.31218 2.46299 8.2859 2.4236 8.25276 2.39042C8.21962 2.35723 8.18026 2.3309 8.13695 2.31292C8.09363 2.29494 8.04719 2.28568 8.00029 2.28564C7.90557 2.28558 7.8147 2.32315 7.74768 2.39008C7.68066 2.45701 7.64297 2.54783 7.64291 2.64255V3.35731H5.50005V2.64303C5.50008 2.59612 5.49088 2.54968 5.47296 2.50633C5.45504 2.46299 5.42876 2.4236 5.39562 2.39042C5.36247 2.35723 5.32312 2.3309 5.2798 2.31292C5.23648 2.29494 5.19005 2.28568 5.14315 2.28564C5.04843 2.28558 4.95756 2.32315 4.89054 2.39008C4.82352 2.45701 4.78583 2.54783 4.78577 2.64255V3.35731H3.23815C2.98564 3.35731 2.74347 3.45759 2.56488 3.63609C2.38629 3.81459 2.28589 4.05671 2.28577 4.30922V12.7616C2.28577 13.0142 2.38611 13.2564 2.56471 13.435C2.74332 13.6136 2.98556 13.714 3.23815 13.714H12.762C13.0145 13.714 13.2568 13.6136 13.4354 13.435C13.614 13.2564 13.7143 13.0142 13.7143 12.7616V4.30922C13.7142 4.05671 13.6138 3.81459 13.4352 3.63609C13.2566 3.45759 13.0145 3.35731 12.762 3.35731V3.35731ZM13.0001 12.7621C13.0001 12.8251 12.975 12.8856 12.9305 12.9303C12.8859 12.9749 12.8255 13 12.7624 13.0002H3.23815C3.175 13.0002 3.11444 12.9751 3.06979 12.9304C3.02514 12.8858 3.00005 12.8252 3.00005 12.7621V4.30969C3.00018 4.24663 3.02532 4.18619 3.06996 4.14164C3.11459 4.09709 3.17508 4.07207 3.23815 4.07207H4.78577V4.78636C4.7857 4.88108 4.82327 4.97195 4.8902 5.03897C4.95714 5.10599 5.04795 5.14368 5.14267 5.14374C5.23739 5.1438 5.32826 5.10624 5.39528 5.0393C5.4623 4.97237 5.49999 4.88156 5.50005 4.78684V4.07207H7.64291V4.78636C7.64285 4.88108 7.68041 4.97195 7.74735 5.03897C7.81428 5.10599 7.90509 5.14368 7.99981 5.14374C8.09453 5.1438 8.1854 5.10624 8.25242 5.0393C8.31944 4.97237 8.35713 4.88156 8.3572 4.78684V4.07207H10.5001V4.78636C10.5 4.88108 10.5376 4.97195 10.6045 5.03897C10.6714 5.10599 10.7622 5.14368 10.857 5.14374C10.9517 5.1438 11.0425 5.10624 11.1096 5.0393C11.1766 4.97237 11.2143 4.88156 11.2143 4.78684V4.07207H12.762C12.8249 4.0722 12.8853 4.09727 12.9298 4.14181C12.9744 4.18634 12.9995 4.24671 12.9996 4.30969L13.0001 12.7621Z" fill="#8D5EC9"/>
<path d="M4.78577 7.10725C4.78577 6.81138 5.02561 6.57153 5.32148 6.57153H5.67862C5.97449 6.57153 6.21434 6.81138 6.21434 7.10725V7.10725C6.21434 7.40311 5.97449 7.64296 5.67862 7.64296H5.32148C5.02561 7.64296 4.78577 7.40311 4.78577 7.10725V7.10725ZM4.78577 8.89296C4.78577 8.59709 5.02561 8.35725 5.32148 8.35725H5.67862C5.97449 8.35725 6.21434 8.59709 6.21434 8.89296V8.89296C6.21434 9.18883 5.97449 9.42868 5.67862 9.42868H5.32148C5.02561 9.42868 4.78577 9.18883 4.78577 8.89296V8.89296ZM4.78577 10.6787C4.78577 10.3828 5.02561 10.143 5.32148 10.143H5.67862C5.97449 10.143 6.21434 10.3828 6.21434 10.6787V10.6787C6.21434 10.9745 5.97449 11.2144 5.67862 11.2144H5.32148C5.02561 11.2144 4.78577 10.9745 4.78577 10.6787V10.6787ZM7.28577 10.6787C7.28577 10.3828 7.52561 10.143 7.82148 10.143H8.17862C8.47449 10.143 8.71434 10.3828 8.71434 10.6787V10.6787C8.71434 10.9745 8.47449 11.2144 8.17862 11.2144H7.82148C7.52561 11.2144 7.28577 10.9745 7.28577 10.6787V10.6787ZM7.28577 8.89296C7.28577 8.59709 7.52561 8.35725 7.82148 8.35725H8.17862C8.47449 8.35725 8.71434 8.59709 8.71434 8.89296V8.89296C8.71434 9.18883 8.47449 9.42868 8.17862 9.42868H7.82148C7.52561 9.42868 7.28577 9.18883 7.28577 8.89296V8.89296ZM7.28577 7.10725C7.28577 6.81138 7.52561 6.57153 7.82148 6.57153H8.17862C8.47449 6.57153 8.71434 6.81138 8.71434 7.10725V7.10725C8.71434 7.40311 8.47449 7.64296 8.17862 7.64296H7.82148C7.52561 7.64296 7.28577 7.40311 7.28577 7.10725V7.10725ZM9.78577 10.6787C9.78577 10.3828 10.0256 10.143 10.3215 10.143H10.6786C10.9745 10.143 11.2143 10.3828 11.2143 10.6787V10.6787C11.2143 10.9745 10.9745 11.2144 10.6786 11.2144H10.3215C10.0256 11.2144 9.78577 10.9745 9.78577 10.6787V10.6787ZM9.78577 8.89296C9.78577 8.59709 10.0256 8.35725 10.3215 8.35725H10.6786C10.9745 8.35725 11.2143 8.59709 11.2143 8.89296V8.89296C11.2143 9.18883 10.9745 9.42868 10.6786 9.42868H10.3215C10.0256 9.42868 9.78577 9.18883 9.78577 8.89296V8.89296ZM9.78577 7.10725C9.78577 6.81138 10.0256 6.57153 10.3215 6.57153H10.6786C10.9745 6.57153 11.2143 6.81138 11.2143 7.10725V7.10725C11.2143 7.40311 10.9745 7.64296 10.6786 7.64296H10.3215C10.0256 7.64296 9.78577 7.40311 9.78577 7.10725V7.10725Z" fill="#8D5EC9"/>
</svg>
