<svg width="16" height="16" viewBox="0 0 16 16" fill="none" xmlns="http://www.w3.org/2000/svg">
<path fill-rule="evenodd" clip-rule="evenodd" d="M12.6349 13.0795C13.0559 13.0795 13.4597 12.9123 13.7573 12.6146C14.055 12.317 14.2222 11.9132 14.2222 11.4922C14.2222 11.0713 14.055 10.6675 13.7573 10.3699C13.4597 10.0722 13.0559 9.90494 12.6349 9.90494C12.214 9.90494 11.8102 10.0722 11.5126 10.3699C11.2149 10.6675 11.0476 11.0713 11.0476 11.4922C11.0476 11.9132 11.2149 12.317 11.5126 12.6146C11.8102 12.9123 12.214 13.0795 12.6349 13.0795ZM12.6349 13.7145C13.2243 13.7145 13.7895 13.4803 14.2063 13.0636C14.623 12.6468 14.8572 12.0816 14.8572 11.4922C14.8572 10.9029 14.623 10.3376 14.2063 9.92089C13.7895 9.50415 13.2243 9.27002 12.6349 9.27002C12.0456 9.27002 11.4803 9.50415 11.0636 9.92089C10.6468 10.3376 10.4127 10.9029 10.4127 11.4922C10.4127 12.0816 10.6468 12.6468 11.0636 13.0636C11.4803 13.4803 12.0456 13.7145 12.6349 13.7145V13.7145Z" fill="#BF72C6"/>
<path fill-rule="evenodd" clip-rule="evenodd" d="M12.6349 10.3809C12.7191 10.3809 12.7998 10.4144 12.8594 10.4739C12.9189 10.5335 12.9523 10.6142 12.9523 10.6984V11.3606L13.1768 11.5851C13.2346 11.6449 13.2666 11.7251 13.2659 11.8084C13.2652 11.8916 13.2318 11.9712 13.1729 12.0301C13.1141 12.0889 13.0344 12.1223 12.9512 12.1231C12.868 12.1238 12.7878 12.0918 12.7279 12.034L12.3174 11.6235V10.6984C12.3174 10.6142 12.3509 10.5335 12.4104 10.4739C12.4699 10.4144 12.5507 10.3809 12.6349 10.3809ZM5.96821 7.68253H5.33328V8.31745H5.96821V7.68253ZM5.33328 7.04761C5.16489 7.04761 5.0034 7.1145 4.88433 7.23357C4.76526 7.35264 4.69836 7.51414 4.69836 7.68253V8.31745C4.69836 8.48584 4.76526 8.64733 4.88433 8.76641C5.0034 8.88548 5.16489 8.95237 5.33328 8.95237H5.96821C6.1366 8.95237 6.29809 8.88548 6.41716 8.76641C6.53623 8.64733 6.60313 8.48584 6.60313 8.31745V7.68253C6.60313 7.51414 6.53623 7.35264 6.41716 7.23357C6.29809 7.1145 6.1366 7.04761 5.96821 7.04761H5.33328ZM8.50789 7.68253H7.87297V8.31745H8.50789V7.68253ZM7.87297 7.04761C7.70458 7.04761 7.54308 7.1145 7.42401 7.23357C7.30494 7.35264 7.23805 7.51414 7.23805 7.68253V8.31745C7.23805 8.48584 7.30494 8.64733 7.42401 8.76641C7.54308 8.88548 7.70458 8.95237 7.87297 8.95237H8.50789C8.67628 8.95237 8.83777 8.88548 8.95685 8.76641C9.07592 8.64733 9.14281 8.48584 9.14281 8.31745V7.68253C9.14281 7.51414 9.07592 7.35264 8.95685 7.23357C8.83777 7.1145 8.67628 7.04761 8.50789 7.04761H7.87297ZM11.0476 7.68253H10.4127V8.31745H11.0476V7.68253ZM10.4127 7.04761C10.2443 7.04761 10.0828 7.1145 9.96369 7.23357C9.84462 7.35264 9.77773 7.51414 9.77773 7.68253V8.31745C9.77773 8.48584 9.84462 8.64733 9.96369 8.76641C10.0828 8.88548 10.2443 8.95237 10.4127 8.95237H11.0476C11.216 8.95237 11.3775 8.88548 11.4965 8.76641C11.6156 8.64733 11.6825 8.48584 11.6825 8.31745V7.68253C11.6825 7.51414 11.6156 7.35264 11.4965 7.23357C11.3775 7.1145 11.216 7.04761 11.0476 7.04761H10.4127ZM5.96821 10.2222H5.33328V10.8571H5.96821V10.2222ZM5.33328 9.58729C5.16489 9.58729 5.0034 9.65418 4.88433 9.77325C4.76526 9.89232 4.69836 10.0538 4.69836 10.2222V10.8571C4.69836 11.0255 4.76526 11.187 4.88433 11.3061C5.0034 11.4252 5.16489 11.4921 5.33328 11.4921H5.96821C6.1366 11.4921 6.29809 11.4252 6.41716 11.3061C6.53623 11.187 6.60313 11.0255 6.60313 10.8571V10.2222C6.60313 10.0538 6.53623 9.89232 6.41716 9.77325C6.29809 9.65418 6.1366 9.58729 5.96821 9.58729H5.33328ZM8.50789 10.2222H7.87297V10.8571H8.50789V10.2222ZM7.87297 9.58729C7.70458 9.58729 7.54308 9.65418 7.42401 9.77325C7.30494 9.89232 7.23805 10.0538 7.23805 10.2222V10.8571C7.23805 11.0255 7.30494 11.187 7.42401 11.3061C7.54308 11.4252 7.70458 11.4921 7.87297 11.4921H8.50789C8.67628 11.4921 8.83777 11.4252 8.95685 11.3061C9.07592 11.187 9.14281 11.0255 9.14281 10.8571V10.2222C9.14281 10.0538 9.07592 9.89232 8.95685 9.77325C8.83777 9.65418 8.67628 9.58729 8.50789 9.58729H7.87297Z" fill="#BF72C6"/>
<path fill-rule="evenodd" clip-rule="evenodd" d="M4.06351 4.19042C4.06351 4.10622 4.09696 4.02548 4.15649 3.96594C4.21603 3.9064 4.29677 3.87296 4.38097 3.87296H5.96827V3.23804H4.38097C4.12838 3.23804 3.88614 3.33838 3.70753 3.51698C3.52893 3.69559 3.42859 3.93783 3.42859 4.19042V11.8095C3.42859 12.0621 3.52893 12.3043 3.70753 12.4829C3.88614 12.6615 4.12838 12.7618 4.38097 12.7618H10.8111C10.6757 12.5679 10.5723 12.3536 10.5048 12.1269H4.38097C4.29677 12.1269 4.21603 12.0935 4.15649 12.0339C4.09696 11.9744 4.06351 11.8937 4.06351 11.8095V4.19042ZM12.3175 9.29201C12.528 9.26188 12.7418 9.26188 12.9524 9.29201V4.19042C12.9524 3.93783 12.8521 3.69559 12.6735 3.51698C12.4948 3.33838 12.2526 3.23804 12 3.23804H11.0476V3.87296H12C12.0842 3.87296 12.165 3.9064 12.2245 3.96594C12.284 4.02548 12.3175 4.10622 12.3175 4.19042V9.29201ZM6.60319 3.87296H9.95653V3.23804H6.60319V3.87296Z" fill="#BF72C6"/>
<path fill-rule="evenodd" clip-rule="evenodd" d="M12.9524 6.09513H4.06348V5.46021H12.9524V6.09513Z" fill="#BF72C6"/>
<path d="M5.33337 2.6031C5.33337 2.51891 5.36682 2.43816 5.42636 2.37863C5.48589 2.31909 5.56664 2.28564 5.65083 2.28564C5.73503 2.28564 5.81578 2.31909 5.87531 2.37863C5.93485 2.43816 5.96829 2.51891 5.96829 2.6031V4.19041C5.96829 4.2746 5.93485 4.35535 5.87531 4.41488C5.81578 4.47442 5.73503 4.50787 5.65083 4.50787C5.56664 4.50787 5.48589 4.47442 5.42636 4.41488C5.36682 4.35535 5.33337 4.2746 5.33337 4.19041V2.6031ZM9.77782 2.6031C9.77782 2.51891 9.81126 2.43816 9.8708 2.37863C9.93034 2.31909 10.0111 2.28564 10.0953 2.28564C10.1795 2.28564 10.2602 2.31909 10.3198 2.37863C10.3793 2.43816 10.4127 2.51891 10.4127 2.6031V4.19041C10.4127 4.2746 10.3793 4.35535 10.3198 4.41488C10.2602 4.47442 10.1795 4.50787 10.0953 4.50787C10.0111 4.50787 9.93034 4.47442 9.8708 4.41488C9.81126 4.35535 9.77782 4.2746 9.77782 4.19041V2.6031Z" fill="#BF72C6"/>
</svg>
