<svg width="28" height="16" viewBox="0 0 28 16" fill="none" xmlns="http://www.w3.org/2000/svg">
<rect x="0.5" y="0.5" width="27" height="15" rx="2.5" fill="#E9F6FD"/>
<path d="M7.86475 10.4717V11.5H4.45898V10.4717H7.86475ZM4.88965 5.10156V11.5H3.57129V5.10156H4.88965ZM7.4209 7.70752V8.70947H4.45898V7.70752H7.4209ZM7.86035 5.10156V6.13428H4.45898V5.10156H7.86035ZM13.1071 10.4717V11.5H9.88588V10.4717H13.1071ZM10.3121 5.10156V11.5H8.99379V5.10156H10.3121ZM17.554 9.82568C17.554 9.71143 17.5364 9.60889 17.5013 9.51807C17.469 9.42432 17.4075 9.33936 17.3167 9.26318C17.2259 9.18408 17.0984 9.10645 16.9344 9.03027C16.7703 8.9541 16.5579 8.875 16.2971 8.79297C16.0071 8.69922 15.7317 8.59375 15.471 8.47656C15.2132 8.35938 14.9846 8.22314 14.7854 8.06787C14.5891 7.90967 14.4339 7.72656 14.3196 7.51855C14.2083 7.31055 14.1526 7.06885 14.1526 6.79346C14.1526 6.52686 14.2112 6.28516 14.3284 6.06836C14.4456 5.84863 14.6096 5.66113 14.8206 5.50586C15.0315 5.34766 15.2805 5.22607 15.5677 5.14111C15.8577 5.05615 16.1756 5.01367 16.5213 5.01367C16.9929 5.01367 17.4046 5.09863 17.7561 5.26855C18.1077 5.43848 18.3802 5.67139 18.5735 5.96729C18.7698 6.26318 18.8679 6.60156 18.8679 6.98242H17.5584C17.5584 6.79492 17.5188 6.63086 17.4397 6.49023C17.3636 6.34668 17.2464 6.23389 17.0882 6.15186C16.9329 6.06982 16.7366 6.02881 16.4993 6.02881C16.2708 6.02881 16.0804 6.06396 15.928 6.13428C15.7757 6.20166 15.6614 6.29395 15.5852 6.41113C15.5091 6.52539 15.471 6.6543 15.471 6.79785C15.471 6.90625 15.4973 7.00439 15.5501 7.09229C15.6057 7.18018 15.6878 7.26221 15.7962 7.33838C15.9046 7.41455 16.0379 7.48633 16.1961 7.55371C16.3543 7.62109 16.5374 7.68701 16.7454 7.75146C17.094 7.85693 17.4002 7.97559 17.6638 8.10742C17.9304 8.23926 18.1531 8.38721 18.3318 8.55127C18.5105 8.71533 18.6453 8.90137 18.7361 9.10938C18.8269 9.31738 18.8723 9.55322 18.8723 9.81689C18.8723 10.0952 18.8181 10.3442 18.7097 10.564C18.6013 10.7837 18.4446 10.9697 18.2395 11.1221C18.0345 11.2744 17.7898 11.3901 17.5056 11.4692C17.2215 11.5483 16.9036 11.5879 16.552 11.5879C16.2356 11.5879 15.9236 11.5469 15.616 11.4648C15.3084 11.3799 15.0286 11.2524 14.7766 11.0825C14.5276 10.9126 14.3284 10.6958 14.179 10.4321C14.0296 10.1685 13.9549 9.85645 13.9549 9.49609H15.2776C15.2776 9.69531 15.3084 9.86377 15.3699 10.0015C15.4314 10.1392 15.5179 10.2505 15.6292 10.3354C15.7434 10.4204 15.8782 10.4819 16.0335 10.52C16.1917 10.5581 16.3645 10.5771 16.552 10.5771C16.7805 10.5771 16.968 10.5449 17.1145 10.4805C17.2639 10.416 17.3738 10.3267 17.4441 10.2124C17.5174 10.0981 17.554 9.96924 17.554 9.82568ZM24.4223 10.4717V11.5H21.0165V10.4717H24.4223ZM21.4472 5.10156V11.5H20.1288V5.10156H21.4472ZM23.9784 7.70752V8.70947H21.0165V7.70752H23.9784ZM24.4179 5.10156V6.13428H21.0165V5.10156H24.4179Z" fill="#00588A"/>
<rect x="0.5" y="0.5" width="27" height="15" rx="2.5" stroke="#019FE3" stroke-linejoin="round"/>
</svg>
