<svg width="16" height="16" viewBox="0 0 16 16" fill="none" xmlns="http://www.w3.org/2000/svg">
<rect width="16" height="16" rx="3" fill="white"/>
<path d="M14 3.42848L2.00002 3.42851C1.52667 3.42851 1.14288 3.82305 1.14288 4.30967V12.2401C1.14288 12.7269 1.52667 13.1213 2.00002 13.1213H4.14288C4.41738 13.1213 4.57145 12.7589 4.57145 12.6809V12.6807C4.57145 12.6005 4.42573 12.2344 4.14288 12.2344H2.52288C2.2366 12.2344 2.00431 11.9956 2.00431 11.7013V4.8626C2.00431 4.56808 2.23638 4.32949 2.52288 4.32949L13.4819 4.31563C13.7681 4.31563 14.0004 4.5542 14.0004 4.84873V11.7011C14.0004 11.9954 13.7681 12.2342 13.4819 12.2342H8.0823L9.09994 11.2854C9.22508 11.1622 9.2656 10.9631 9.14045 10.8402L9.06717 10.7291C8.9416 10.606 8.7391 10.606 8.61395 10.7291L6.87653 12.3597C6.87396 12.3619 6.8716 12.3628 6.86946 12.3648L6.75589 12.4763C6.69332 12.5373 6.66203 12.6186 6.66246 12.6996C6.66203 12.7809 6.6931 12.8618 6.7559 12.9239L6.86947 13.0353C6.87161 13.0375 6.8744 13.038 6.87654 13.04L8.58718 14.6302C8.71233 14.7534 8.91482 14.7534 9.0404 14.6302L9.11368 14.5192C9.23882 14.396 9.19832 14.1965 9.07317 14.0735L8.04011 13.1212H14C14.4734 13.1212 14.8572 12.7269 14.8572 12.2401V4.30963C14.8572 3.82301 14.4734 3.42847 14 3.42847V3.42848Z" fill="#8066E7"/>
<path d="M5.65657 8.47056H4.56589L4.33283 10.1982H3.42859L4.0252 5.79176H6.23454L6.132 6.54881H4.82691L4.65911 7.75233H5.74979L5.65657 8.47056Z" fill="#8066E7"/>
<path d="M7.66817 9.5479C7.92297 9.5479 8.12184 9.41525 8.26478 9.14996C8.40772 8.8782 8.51026 8.49644 8.57241 8.00468C8.64077 7.50645 8.63766 7.12469 8.56309 6.8594C8.48851 6.58763 8.32693 6.45175 8.07834 6.45175C7.83596 6.45175 7.64331 6.58763 7.50037 6.8594C7.35743 7.12469 7.25178 7.50645 7.18342 8.00468C7.11505 8.49644 7.11505 8.8782 7.18342 9.14996C7.25178 9.41525 7.41336 9.5479 7.66817 9.5479ZM8.18088 5.71411C8.70292 5.71411 9.07891 5.89852 9.30886 6.26734C9.5388 6.63616 9.60095 7.21527 9.4953 8.00468C9.38965 8.78761 9.17213 9.36349 8.84275 9.73231C8.51337 10.1011 8.08766 10.2855 7.56562 10.2855C6.49047 10.2855 6.05544 9.52525 6.26053 8.00468C6.36618 7.21527 6.58369 6.63616 6.91307 6.26734C7.24246 5.89852 7.66506 5.71411 8.18088 5.71411Z" fill="#8066E7"/>
<path d="M10.6304 7.83968L11.0219 7.85909C11.3761 7.85909 11.5874 7.62939 11.6558 7.16998C11.7304 6.69763 11.5688 6.46146 11.1711 6.46146C11.0778 6.46146 10.9566 6.46793 10.8075 6.48087L10.6304 7.83968ZM10.8634 8.52879L10.5372 8.51909L10.3134 10.1982H9.46511L10.0617 5.79176C10.0617 5.79176 10.4408 5.78205 11.199 5.76264C11.7397 5.76264 12.1126 5.8694 12.3177 6.08293C12.5352 6.29646 12.6129 6.66528 12.5507 7.18939C12.501 7.5388 12.3923 7.8138 12.2245 8.01438C12.0567 8.2085 11.8733 8.33791 11.6745 8.40262L12.2617 10.1982H11.3109L10.8634 8.52879Z" fill="#8066E7"/>
</svg>
