<svg width="16" height="16" viewBox="0 0 16 16" fill="none" xmlns="http://www.w3.org/2000/svg">
<path d="M14 3.42848L1.99996 3.42851C1.52661 3.42851 1.14282 3.82305 1.14282 4.30967V12.2401C1.14282 12.7269 1.52661 13.1213 1.99996 13.1213H4.14282C4.41732 13.1213 4.57139 12.7589 4.57139 12.6809V12.6807C4.57139 12.6005 4.42567 12.2344 4.14282 12.2344H2.52282C2.23653 12.2344 2.00425 11.9956 2.00425 11.7013V4.8626C2.00425 4.56808 2.23632 4.32949 2.52282 4.32949L13.4818 4.31563C13.7681 4.31563 14.0004 4.5542 14.0004 4.84873V11.7011C14.0004 11.9954 13.7681 12.2342 13.4818 12.2342H8.08224L9.09988 11.2854C9.22502 11.1622 9.26553 10.9631 9.14039 10.8402L9.06711 10.7291C8.94154 10.606 8.73904 10.606 8.61389 10.7291L6.87647 12.3597C6.8739 12.3619 6.87154 12.3628 6.8694 12.3648L6.75583 12.4763C6.69325 12.5373 6.66197 12.6186 6.6624 12.6996C6.66197 12.7809 6.69304 12.8618 6.75584 12.9239L6.86941 13.0353C6.87155 13.0375 6.87434 13.038 6.87648 13.04L8.58712 14.6302C8.71226 14.7534 8.91476 14.7534 9.04033 14.6302L9.11362 14.5192C9.23876 14.396 9.19826 14.1965 9.07311 14.0735L8.04005 13.1212H14C14.4733 13.1212 14.8571 12.7269 14.8571 12.2401V4.30963C14.8571 3.82301 14.4733 3.42847 14 3.42847V3.42848Z" fill="#947CF2"/>
<path d="M5.43686 8.01486H4.24392L3.98902 9.90446H3L3.65255 5.08493H6.06901L5.95686 5.91295H4.52941L4.34588 7.2293H5.53882L5.43686 8.01486Z" fill="#947CF2"/>
<path d="M7.63704 9.19321C7.91573 9.19321 8.13324 9.04812 8.28958 8.75796C8.44592 8.46072 8.55808 8.04317 8.62605 7.50531C8.70083 6.96037 8.69743 6.54282 8.61586 6.25265C8.53429 5.95541 8.35756 5.80679 8.08566 5.80679C7.82057 5.80679 7.60985 5.95541 7.45351 6.25265C7.29717 6.54282 7.18161 6.96037 7.10684 7.50531C7.03207 8.04317 7.03207 8.46072 7.10684 8.75796C7.18161 9.04812 7.35834 9.19321 7.63704 9.19321ZM8.19782 5C8.7688 5 9.18004 5.2017 9.43154 5.6051C9.68305 6.00849 9.75102 6.6419 9.63546 7.50531C9.51991 8.36164 9.282 8.99151 8.92174 9.3949C8.56148 9.7983 8.09586 10 7.52488 10C6.34893 10 5.87312 9.16844 6.09743 7.50531C6.21299 6.6419 6.45089 6.00849 6.81116 5.6051C7.17142 5.2017 7.63364 5 8.19782 5Z" fill="#947CF2"/>
<path d="M10.877 7.32484L11.3052 7.34607C11.6926 7.34607 11.9237 7.09483 11.9985 6.59236C12.0801 6.07573 11.9034 5.81741 11.4683 5.81741C11.3664 5.81741 11.2338 5.82449 11.0707 5.83864L10.877 7.32484ZM11.1319 8.07856L10.775 8.06794L10.5303 9.90446H9.60245L10.255 5.08493C10.255 5.08493 10.6696 5.07431 11.4989 5.05308C12.0903 5.05308 12.4981 5.16985 12.7224 5.4034C12.9603 5.63694 13.0453 6.04034 12.9773 6.61359C12.923 6.99575 12.804 7.29653 12.6205 7.51592C12.437 7.72824 12.2364 7.86978 12.0189 7.94055L12.6613 9.90446H11.6213L11.1319 8.07856Z" fill="#947CF2"/>
</svg>
