<svg width="15" height="15" viewBox="0 0 15 15" fill="currentColor" xmlns="http://www.w3.org/2000/svg">
<path d="M4.9843 5.49017L4.30934 8.15538C3.99398 9.413 3.68631 10.3245 3.38633 10.8898C3.08634 11.4552 2.73444 11.8725 2.33062 12.1417C1.93065 12.4147 1.47106 12.5513 0.951863 12.5513C0.624961 12.5513 0.384591 12.4878 0.230755 12.3609C0.0769182 12.2378 0 12.0917 0 11.9225C0 11.7648 0.0634576 11.6282 0.190373 11.5129C0.317288 11.3975 0.484585 11.3398 0.692264 11.3398C0.86533 11.3398 0.998014 11.384 1.09032 11.4725C1.18262 11.5609 1.22877 11.6725 1.22877 11.8071C1.22877 11.9301 1.19992 12.0205 1.14224 12.0782C1.08455 12.1397 1.0557 12.1801 1.0557 12.1994L1.08455 12.2397C1.10762 12.259 1.13454 12.2686 1.16531 12.2686C1.28069 12.2686 1.37876 12.232 1.45952 12.159C1.66336 11.9782 1.81527 11.759 1.91526 11.5013C1.98449 11.3244 2.11717 10.8571 2.31332 10.0995L3.49017 5.49017H2.68829L2.87867 4.81521C3.16711 4.81905 3.37671 4.78252 3.50747 4.7056C3.63823 4.62868 3.77669 4.45561 3.92283 4.1864C4.34588 3.40568 4.79201 2.8461 5.26121 2.50766C5.73041 2.16922 6.25345 2 6.83034 2C7.19955 2 7.46684 2.07115 7.63221 2.21345C7.80143 2.35575 7.88604 2.54035 7.88604 2.76726C7.88604 2.96725 7.83028 3.12685 7.71875 3.24608C7.60721 3.36145 7.46876 3.41914 7.30339 3.41914C7.14955 3.41914 7.02264 3.37107 6.92264 3.27492C6.82265 3.17877 6.77265 3.06339 6.77265 2.92879C6.77265 2.83264 6.80342 2.73072 6.86495 2.62304C6.93033 2.51535 6.96302 2.44228 6.96302 2.40382C6.96302 2.36152 6.94764 2.3269 6.91687 2.29998C6.88995 2.27306 6.85342 2.2596 6.80726 2.2596C6.58036 2.2596 6.34768 2.39997 6.10923 2.68073C5.71695 3.1307 5.40158 3.84219 5.16314 4.81521H5.99962L5.79771 5.49017H4.9843Z" />
<path d="M9.12717 4.85765L9.06042 5.06162C8.70687 5.3138 8.41389 5.60678 8.18149 5.94055C7.82547 6.4548 7.53497 7.08155 7.30998 7.82079C7.08747 8.55755 6.97621 9.24982 6.97621 9.89758C6.97621 10.3105 7.07387 10.7555 7.26919 11.2327L7.20614 11.4478C6.54107 10.5577 6.20854 9.67012 6.20854 8.78501C6.20854 8.2757 6.3198 7.77134 6.54231 7.27192C6.80438 6.68844 7.19254 6.17048 7.7068 5.71804C8.0999 5.3719 8.57336 5.08511 9.12717 4.85765Z" />
<path d="M10.3844 6.56359L9.92451 8.15456C10.2336 7.68975 10.4647 7.37205 10.618 7.20146C10.843 6.95422 11.0371 6.7861 11.2003 6.69709C11.3634 6.60809 11.5167 6.56359 11.6601 6.56359C11.7887 6.56359 11.8987 6.6118 11.9902 6.70822C12.0817 6.80217 12.1274 6.92579 12.1274 7.07908C12.1274 7.21753 12.0977 7.38565 12.0384 7.58344L11.5637 9.16699C11.5241 9.30545 11.5044 9.39569 11.5044 9.43772C11.5044 9.46244 11.513 9.48469 11.5303 9.50447C11.5501 9.52425 11.5699 9.53414 11.5897 9.53414C11.6144 9.53414 11.6403 9.52425 11.6675 9.50447C11.7541 9.43277 11.8418 9.33141 11.9308 9.20037C11.9531 9.16576 11.9889 9.11384 12.0384 9.04461L12.1793 9.12991C11.8159 9.74058 11.4339 10.0459 11.0334 10.0459C10.8801 10.0459 10.7602 10.0064 10.6736 9.92725C10.5871 9.84813 10.5438 9.74924 10.5438 9.63056C10.5438 9.52672 10.5735 9.3722 10.6328 9.16699L11.0964 7.58344C11.1286 7.4796 11.1446 7.40296 11.1446 7.35351C11.1446 7.32631 11.1335 7.30283 11.1113 7.28305C11.089 7.2608 11.063 7.24967 11.0334 7.24967C10.9394 7.24967 10.8257 7.31395 10.6922 7.44252C10.351 7.76887 10.0209 8.25469 9.702 8.89998L9.3979 10.0014H8.45222L9.14572 7.62053C9.21247 7.38565 9.24585 7.21877 9.24585 7.11987C9.24585 7.07784 9.23596 7.04323 9.21618 7.01603C9.1964 6.98636 9.16426 6.96411 9.11976 6.94928C9.07525 6.93197 8.99119 6.92332 8.86757 6.92332L8.90837 6.78239L10.1582 6.56359H10.3844Z" />
<path d="M11.7269 11.4478L11.7936 11.2438C12.0779 11.0411 12.319 10.8185 12.5168 10.5762C12.7121 10.334 12.9136 9.99895 13.1213 9.57123C13.329 9.14103 13.4983 8.68117 13.6294 8.19164C13.7975 7.55624 13.8815 6.96164 13.8815 6.40783C13.8815 5.99494 13.7839 5.54868 13.5886 5.06904L13.6479 4.85765C14.313 5.7477 14.6455 6.63405 14.6455 7.51669C14.6455 8.02847 14.5343 8.53407 14.3117 9.03349C14.0521 9.61449 13.664 10.1312 13.1473 10.5837C12.7541 10.9298 12.2807 11.2178 11.7269 11.4478Z" />
</svg>
