<svg width="16" height="16" viewBox="0 0 16 16" fill="none" xmlns="http://www.w3.org/2000/svg">
<rect width="16" height="16" rx="3" fill="white"/>
<path d="M4.778 12.8C4.79667 12.52 4.806 12.2307 4.806 11.932C4.81533 11.624 4.82 11.3113 4.82 10.994C4.82933 10.6673 4.834 10.3407 4.834 10.014C4.84333 9.678 4.848 9.342 4.848 9.006C4.848 8.67 4.848 8.33867 4.848 8.012C4.848 7.74133 4.848 7.438 4.848 7.102C4.848 6.766 4.848 6.42067 4.848 6.066C4.848 5.702 4.84333 5.352 4.834 5.016C4.834 4.68 4.82933 4.38133 4.82 4.12L5.576 3.084H6.276C6.26667 3.42 6.25733 3.756 6.248 4.092C6.23867 4.428 6.22933 4.792 6.22 5.184C6.21067 5.56667 6.20133 5.99133 6.192 6.458C6.192 6.91533 6.192 7.438 6.192 8.026C6.192 8.62333 6.192 9.146 6.192 9.594C6.20133 10.042 6.21067 10.448 6.22 10.812C6.22933 11.1667 6.234 11.5027 6.234 11.82C6.24333 12.1373 6.25267 12.464 6.262 12.8H4.778ZM3.07 4.904L3 3.826C3.15867 3.798 3.35933 3.76533 3.602 3.728C3.84467 3.69067 4.09667 3.63933 4.358 3.574C4.61933 3.50867 4.85733 3.43867 5.072 3.364C5.296 3.28 5.464 3.18667 5.576 3.084L5.632 4.596C5.492 4.652 5.31467 4.69867 5.1 4.736C4.88533 4.77333 4.652 4.806 4.4 4.834C4.15733 4.862 3.91933 4.88067 3.686 4.89C3.45267 4.89933 3.24733 4.904 3.07 4.904Z" fill="#616EAF"/>
<path d="M9.1787 12.044L7.9467 11.666C8.23604 11.3673 8.55804 11.0453 8.9127 10.7C9.2767 10.3547 9.63604 9.99067 9.9907 9.608C10.3547 9.216 10.6814 8.81 10.9707 8.39C11.2694 7.97 11.5074 7.54533 11.6847 7.116C11.8714 6.67733 11.9647 6.22933 11.9647 5.772C11.9647 5.38 11.918 5.06733 11.8247 4.834C11.7314 4.60067 11.5914 4.43267 11.4047 4.33C11.2274 4.22733 11.008 4.176 10.7467 4.176C10.4387 4.176 10.1867 4.25067 9.9907 4.4C9.80404 4.54933 9.66404 4.75 9.5707 5.002C9.4867 5.254 9.4447 5.55733 9.4447 5.912C9.4447 6.08933 9.45404 6.28067 9.4727 6.486C9.49137 6.682 9.51937 6.88267 9.5567 7.088L8.2967 7.102C8.25937 6.89667 8.23137 6.696 8.2127 6.5C8.19404 6.29467 8.1847 6.094 8.1847 5.898C8.1847 5.478 8.23604 5.09533 8.3387 4.75C8.44137 4.39533 8.60004 4.08733 8.8147 3.826C9.0387 3.56467 9.31404 3.364 9.6407 3.224C9.9767 3.07467 10.3687 3 10.8167 3C11.2087 3 11.554 3.056 11.8527 3.168C12.1607 3.27067 12.422 3.434 12.6367 3.658C12.8607 3.882 13.0287 4.162 13.1407 4.498C13.262 4.82467 13.3227 5.20733 13.3227 5.646C13.3227 6.16867 13.22 6.69133 13.0147 7.214C12.8094 7.73667 12.5434 8.24067 12.2167 8.726C11.8994 9.202 11.5494 9.65467 11.1667 10.084C10.7934 10.504 10.4294 10.882 10.0747 11.218C9.72937 11.5447 9.4307 11.82 9.1787 12.044ZM7.9187 12.87L7.9467 11.666C8.1987 11.666 8.46004 11.666 8.7307 11.666C9.0107 11.666 9.28604 11.666 9.5567 11.666C9.8367 11.666 10.0887 11.666 10.3127 11.666C10.5367 11.6567 10.714 11.652 10.8447 11.652C10.9754 11.652 11.134 11.652 11.3207 11.652C11.5074 11.6427 11.6987 11.638 11.8947 11.638C12.1 11.6287 12.3007 11.624 12.4967 11.624C12.702 11.6147 12.8794 11.6053 13.0287 11.596C13.1874 11.5773 13.3134 11.5633 13.4067 11.554L13.4207 12.8C13.3554 12.8 13.2294 12.8 13.0427 12.8C12.856 12.8 12.6414 12.8 12.3987 12.8C12.156 12.8 11.9134 12.8 11.6707 12.8C11.428 12.8 11.2134 12.8 11.0267 12.8C10.8494 12.8 10.7374 12.8 10.6907 12.8C10.6254 12.8 10.518 12.8 10.3687 12.8C10.2194 12.8093 10.0514 12.814 9.8647 12.814C9.67804 12.814 9.48204 12.814 9.2767 12.814C9.0807 12.8233 8.88937 12.8327 8.7027 12.842C8.51604 12.8513 8.3527 12.856 8.2127 12.856C8.08204 12.856 7.98404 12.8607 7.9187 12.87Z" fill="#616EAF"/>
</svg>
