<svg width="37" height="16" viewBox="0 0 37 16" fill="none" xmlns="http://www.w3.org/2000/svg">
<rect x="0.5" y="0.5" width="36" height="15" rx="2.5" fill="#F1F7FF"/>
<path d="M8.82715 8.15137V8.45459C8.82715 8.94092 8.76123 9.37744 8.62939 9.76416C8.49756 10.1509 8.31152 10.4805 8.07129 10.7529C7.83105 11.0225 7.54395 11.229 7.20996 11.3726C6.87891 11.5161 6.51123 11.5879 6.10693 11.5879C5.70557 11.5879 5.33789 11.5161 5.00391 11.3726C4.67285 11.229 4.38574 11.0225 4.14258 10.7529C3.89941 10.4805 3.71045 10.1509 3.57568 9.76416C3.44385 9.37744 3.37793 8.94092 3.37793 8.45459V8.15137C3.37793 7.66211 3.44385 7.22559 3.57568 6.8418C3.70752 6.45508 3.89355 6.12549 4.13379 5.85303C4.37695 5.58057 4.66406 5.37256 4.99512 5.229C5.3291 5.08545 5.69678 5.01367 6.09814 5.01367C6.50244 5.01367 6.87012 5.08545 7.20117 5.229C7.53516 5.37256 7.82227 5.58057 8.0625 5.85303C8.30566 6.12549 8.49316 6.45508 8.625 6.8418C8.75977 7.22559 8.82715 7.66211 8.82715 8.15137ZM7.49561 8.45459V8.14258C7.49561 7.80273 7.46484 7.50391 7.40332 7.24609C7.3418 6.98828 7.25098 6.77148 7.13086 6.5957C7.01074 6.41992 6.86426 6.28809 6.69141 6.2002C6.51855 6.10938 6.3208 6.06396 6.09814 6.06396C5.87549 6.06396 5.67773 6.10938 5.50488 6.2002C5.33496 6.28809 5.18994 6.41992 5.06982 6.5957C4.95264 6.77148 4.86328 6.98828 4.80176 7.24609C4.74023 7.50391 4.70947 7.80273 4.70947 8.14258V8.45459C4.70947 8.7915 4.74023 9.09033 4.80176 9.35107C4.86328 9.60889 4.9541 9.82715 5.07422 10.0059C5.19434 10.1816 5.34082 10.3149 5.51367 10.4058C5.68652 10.4966 5.88428 10.542 6.10693 10.542C6.32959 10.542 6.52734 10.4966 6.7002 10.4058C6.87305 10.3149 7.01807 10.1816 7.13525 10.0059C7.25244 9.82715 7.3418 9.60889 7.40332 9.35107C7.46484 9.09033 7.49561 8.7915 7.49561 8.45459ZM12.6984 5.10156V11.5H11.3844V5.10156H12.6984ZM14.6671 5.10156V6.13428H9.44643V5.10156H14.6671ZM20.0457 7.70752V8.73584H16.7058V7.70752H20.0457ZM17.097 5.10156V11.5H15.7786V5.10156H17.097ZM20.9861 5.10156V11.5H19.6721V5.10156H20.9861ZM26.7865 10.4717V11.5H23.3808V10.4717H26.7865ZM23.8114 5.10156V11.5H22.4931V5.10156H23.8114ZM26.3427 7.70752V8.70947H23.3808V7.70752H26.3427ZM26.7821 5.10156V6.13428H23.3808V5.10156H26.7821ZM27.9156 5.10156H30.3018C30.7911 5.10156 31.2115 5.1748 31.563 5.32129C31.9175 5.46777 32.19 5.68457 32.3804 5.97168C32.5709 6.25879 32.6661 6.61182 32.6661 7.03076C32.6661 7.37354 32.6075 7.66797 32.4903 7.91406C32.376 8.15723 32.2134 8.36084 32.0025 8.5249C31.7945 8.68604 31.5499 8.81494 31.2686 8.91162L30.8511 9.13135H28.7769L28.7681 8.10303H30.3106C30.5421 8.10303 30.7339 8.06201 30.8863 7.97998C31.0386 7.89795 31.1529 7.78369 31.2291 7.63721C31.3082 7.49072 31.3477 7.3208 31.3477 7.12744C31.3477 6.92236 31.3096 6.74512 31.2335 6.5957C31.1573 6.44629 31.0416 6.33203 30.8863 6.25293C30.731 6.17383 30.5362 6.13428 30.3018 6.13428H29.2339V11.5H27.9156V5.10156ZM31.4927 11.5L30.0338 8.64795L31.4268 8.63916L32.9034 11.4385V11.5H31.4927Z" fill="#685CAF"/>
<rect x="0.5" y="0.5" width="36" height="15" rx="2.5" stroke="#BAADDE" stroke-linejoin="round"/>
</svg>
