<svg width="42" height="16" viewBox="0 0 42 16" fill="none" xmlns="http://www.w3.org/2000/svg">
<path d="M1 3C1 1.89543 1.89543 1 3 1H39C40.1046 1 41 1.89543 41 3V13C41 14.1046 40.1046 15 39 15H3C1.89543 15 1 14.1046 1 13V3Z" fill="#E9E4E0"/>
<path d="M6.90234 9.82568C6.90234 9.71143 6.88477 9.60889 6.84961 9.51807C6.81738 9.42432 6.75586 9.33936 6.66504 9.26318C6.57422 9.18408 6.44678 9.10645 6.28271 9.03027C6.11865 8.9541 5.90625 8.875 5.64551 8.79297C5.35547 8.69922 5.08008 8.59375 4.81934 8.47656C4.56152 8.35938 4.33301 8.22314 4.13379 8.06787C3.9375 7.90967 3.78223 7.72656 3.66797 7.51855C3.55664 7.31055 3.50098 7.06885 3.50098 6.79346C3.50098 6.52686 3.55957 6.28516 3.67676 6.06836C3.79395 5.84863 3.95801 5.66113 4.16895 5.50586C4.37988 5.34766 4.62891 5.22607 4.91602 5.14111C5.20605 5.05615 5.52393 5.01367 5.86963 5.01367C6.34131 5.01367 6.75293 5.09863 7.10449 5.26855C7.45605 5.43848 7.72852 5.67139 7.92188 5.96729C8.11816 6.26318 8.21631 6.60156 8.21631 6.98242H6.90674C6.90674 6.79492 6.86719 6.63086 6.78809 6.49023C6.71191 6.34668 6.59473 6.23389 6.43652 6.15186C6.28125 6.06982 6.08496 6.02881 5.84766 6.02881C5.61914 6.02881 5.42871 6.06396 5.27637 6.13428C5.12402 6.20166 5.00977 6.29395 4.93359 6.41113C4.85742 6.52539 4.81934 6.6543 4.81934 6.79785C4.81934 6.90625 4.8457 7.00439 4.89844 7.09229C4.9541 7.18018 5.03613 7.26221 5.14453 7.33838C5.25293 7.41455 5.38623 7.48633 5.54443 7.55371C5.70264 7.62109 5.88574 7.68701 6.09375 7.75146C6.44238 7.85693 6.74854 7.97559 7.01221 8.10742C7.27881 8.23926 7.50146 8.38721 7.68018 8.55127C7.85889 8.71533 7.99365 8.90137 8.08447 9.10938C8.17529 9.31738 8.2207 9.55322 8.2207 9.81689C8.2207 10.0952 8.1665 10.3442 8.05811 10.564C7.94971 10.7837 7.79297 10.9697 7.58789 11.1221C7.38281 11.2744 7.13818 11.3901 6.854 11.4692C6.56982 11.5483 6.25195 11.5879 5.90039 11.5879C5.58398 11.5879 5.27197 11.5469 4.96436 11.4648C4.65674 11.3799 4.37695 11.2524 4.125 11.0825C3.87598 10.9126 3.67676 10.6958 3.52734 10.4321C3.37793 10.1685 3.30322 9.85645 3.30322 9.49609H4.62598C4.62598 9.69531 4.65674 9.86377 4.71826 10.0015C4.77979 10.1392 4.86621 10.2505 4.97754 10.3354C5.0918 10.4204 5.22656 10.4819 5.38184 10.52C5.54004 10.5581 5.71289 10.5771 5.90039 10.5771C6.12891 10.5771 6.31641 10.5449 6.46289 10.4805C6.6123 10.416 6.72217 10.3267 6.79248 10.2124C6.86572 10.0981 6.90234 9.96924 6.90234 9.82568ZM11.0197 10.4849L12.2941 5.10156H13.006L13.1686 5.99805L11.8107 11.5H11.046L11.0197 10.4849ZM10.3649 5.10156L11.4196 10.4849L11.3317 11.5H10.4791L9.05971 5.10156H10.3649ZM14.2892 10.4629L15.3307 5.10156H16.6359L15.2208 11.5H14.3683L14.2892 10.4629ZM13.4059 5.10156L14.6891 10.5068L14.6539 11.5H13.8893L12.5226 5.99365L12.6984 5.10156H13.4059ZM19.114 5.10156V11.5H17.8001V5.10156H19.114ZM23.4379 5.10156V11.5H22.1239V5.10156H23.4379ZM25.4067 5.10156V6.13428H20.186V5.10156H25.4067ZM30.1041 9.37744H31.418C31.3917 9.80811 31.273 10.1904 31.0621 10.5244C30.8541 10.8584 30.5626 11.1191 30.1876 11.3066C29.8155 11.4941 29.3672 11.5879 28.8428 11.5879C28.4327 11.5879 28.065 11.5176 27.7398 11.377C27.4146 11.2334 27.1363 11.0283 26.9048 10.7617C26.6763 10.4951 26.502 10.1729 26.3819 9.79492C26.2618 9.41699 26.2017 8.99365 26.2017 8.5249V8.08105C26.2017 7.6123 26.2632 7.18896 26.3863 6.81104C26.5123 6.43018 26.691 6.10645 26.9224 5.83984C27.1568 5.57324 27.4366 5.36816 27.7618 5.22461C28.087 5.08105 28.4503 5.00928 28.8516 5.00928C29.3848 5.00928 29.8345 5.10596 30.2007 5.29932C30.5699 5.49268 30.8555 5.75928 31.0577 6.09912C31.2628 6.43896 31.3858 6.82568 31.4268 7.25928H30.1085C30.0938 7.00146 30.0425 6.7832 29.9546 6.60449C29.8668 6.42285 29.7335 6.28662 29.5547 6.1958C29.379 6.10205 29.1446 6.05518 28.8516 6.05518C28.6319 6.05518 28.44 6.09619 28.2759 6.17822C28.1119 6.26025 27.9742 6.38477 27.8629 6.55176C27.7515 6.71875 27.668 6.92969 27.6124 7.18457C27.5596 7.43652 27.5333 7.73242 27.5333 8.07227V8.5249C27.5333 8.85596 27.5582 9.14746 27.608 9.39941C27.6578 9.64844 27.7339 9.85938 27.8365 10.0322C27.942 10.2021 28.0767 10.3311 28.2408 10.4189C28.4078 10.5039 28.6085 10.5464 28.8428 10.5464C29.1182 10.5464 29.3453 10.5024 29.524 10.4146C29.7027 10.3267 29.8389 10.1963 29.9327 10.0234C30.0294 9.85059 30.0865 9.63525 30.1041 9.37744ZM36.9108 7.70752V8.73584H33.571V7.70752H36.9108ZM33.9621 5.10156V11.5H32.6437V5.10156H33.9621ZM37.8513 5.10156V11.5H36.5373V5.10156H37.8513Z" fill="#C68C56"/>
<path d="M3 2H39V0H3V2ZM40 3V13H42V3H40ZM39 14H3V16H39V14ZM2 13V3H0V13H2ZM3 14C2.44772 14 2 13.5523 2 13H0C0 14.6569 1.34315 16 3 16V14ZM40 13C40 13.5523 39.5523 14 39 14V16C40.6569 16 42 14.6569 42 13H40ZM39 2C39.5523 2 40 2.44772 40 3H42C42 1.34315 40.6569 0 39 0V2ZM3 0C1.34315 0 0 1.34315 0 3H2C2 2.44772 2.44772 2 3 2V0Z" fill="#DE924B"/>
</svg>
