<svg width="16" height="16" viewBox="0 0 16 16" fill="none" xmlns="http://www.w3.org/2000/svg">
<rect width="16" height="16" rx="3" fill="white"/>
<path d="M8.21232 6.6227C8.86066 5.67178 9.38104 5.00613 9.77346 4.62577C10.1716 4.23926 10.5583 4.04601 10.9336 4.04601C11.3829 4.04601 11.6929 4.21166 11.8635 4.54294C11.9545 4.71472 12 4.92331 12 5.16871C12 5.42025 11.9062 5.65031 11.7185 5.8589C11.5308 6.06748 11.3033 6.17178 11.036 6.17178C10.8711 6.17178 10.6834 6.10429 10.473 5.96933C10.2682 5.83436 10.1118 5.76687 10.0038 5.76687C9.79337 5.76687 9.59147 5.88344 9.3981 6.11656C9.21043 6.34969 8.88341 6.84356 8.41706 7.59816L8.57915 8.51841C8.66446 8.9908 8.73555 9.38037 8.79242 9.68712C8.84929 9.98773 8.91185 10.2669 8.98009 10.5245C9.07109 10.8804 9.16209 11.138 9.25308 11.2975C9.34408 11.4571 9.47773 11.5368 9.65403 11.5368C9.81327 11.5368 10.0066 11.411 10.2341 11.1595C10.3592 11.0245 10.5498 10.7761 10.8057 10.4141L11.164 10.681C10.8626 11.227 10.4701 11.7454 9.98673 12.2362C9.509 12.727 9.03981 12.9724 8.57915 12.9724C8.19242 12.9724 7.87393 12.8006 7.6237 12.4571C7.48152 12.273 7.3564 12.0215 7.24834 11.7025C7.19147 11.5368 7.11185 11.2454 7.00948 10.8282C6.9128 10.4049 6.85024 10.1442 6.8218 10.046L6.70237 10.2669C6.13934 11.3098 5.72701 11.9877 5.4654 12.3006C5.07299 12.7669 4.61801 13 4.10047 13C3.80474 13 3.54597 12.8926 3.32417 12.6779C3.10806 12.4571 3 12.1871 3 11.8681C3 11.6043 3.07962 11.362 3.23886 11.1411C3.40379 10.9141 3.63128 10.8006 3.92133 10.8006C4.09763 10.8006 4.31374 10.8681 4.56967 11.0031C4.83128 11.138 5.0019 11.2055 5.08152 11.2055C5.25782 11.2055 5.40853 11.1227 5.53365 10.9571C5.66446 10.7853 5.91754 10.365 6.29289 9.69632L6.63412 9.08896C6.57725 8.83129 6.51469 8.51534 6.44645 8.1411C6.38389 7.76687 6.31848 7.38344 6.25024 6.9908L6.11374 6.20859C6.01706 5.64417 5.86351 5.27301 5.65308 5.09509C5.53365 4.9908 5.33744 4.93865 5.06446 4.93865C5.03602 4.93865 4.96777 4.94479 4.85972 4.95706C4.75166 4.96319 4.6436 4.97239 4.53555 4.98466V4.47853C5.04739 4.41104 5.60758 4.32515 6.21611 4.22086C6.83033 4.11656 7.23981 4.04294 7.44455 4C7.61517 4.2454 7.7545 4.54294 7.86256 4.89264C7.9763 5.24233 8.06161 5.6135 8.11848 6.00614L8.21232 6.6227Z" fill="#70B67F"/>
</svg>
