<svg xmlns="http://www.w3.org/2000/svg" width="185" height="179" viewBox="0 0 185 179" fill="none">
<g clip-path="url(#clip0_3866_316593)">
<path d="M144.373 45.6069L139.077 50.9031C138.229 51.7505 138.229 53.1245 139.077 53.9719L144.373 59.2682C145.221 60.1156 146.595 60.1156 147.442 59.2682L152.738 53.9719C153.586 53.1245 153.586 51.7505 152.738 50.9031L147.442 45.6068C146.595 44.7594 145.221 44.7594 144.373 45.6069Z" fill="#27AAE1"/>
<path d="M67.2125 67.8281L63.136 73.8718C62.4843 74.8379 62.7392 76.1494 63.7053 76.801L69.749 80.8775C70.7151 81.5291 72.0265 81.2742 72.6782 80.3081L76.7547 74.2645C77.4063 73.2984 77.1514 71.9869 76.1853 71.3353L70.1416 67.2588C69.1755 66.6071 67.8641 66.8621 67.2125 67.8281Z" fill="#00A79D"/>
<path d="M170.659 77.7562L166.435 84.7849C165.761 85.9069 166.124 87.3629 167.246 88.037L174.275 92.2604C175.397 92.9345 176.853 92.5715 177.527 91.4495L181.751 84.4207C182.425 83.2988 182.062 81.8428 180.94 81.1686L173.911 76.9453C172.789 76.2712 171.333 76.6342 170.659 77.7562Z" fill="#00A79D"/>
<path d="M88.9735 50.4314L84.7635 56.9143C84.0897 57.9519 84.3845 59.3392 85.4221 60.013L91.905 64.223C92.9425 64.8968 94.3298 64.6019 95.0036 63.5644L99.2137 57.0815C99.8875 56.0439 99.5926 54.6566 98.555 53.9829L92.0721 49.7728C91.0346 49.099 89.6473 49.3939 88.9735 50.4314Z" fill="#27AAE1"/>
<path d="M27.3854 134.833L27.2486 136.397C27.2264 136.65 27.4137 136.873 27.6668 136.896L29.2308 137.032C29.4839 137.055 29.707 136.867 29.7291 136.614L29.866 135.05C29.8881 134.797 29.7009 134.574 29.4478 134.552L27.8838 134.415C27.6307 134.393 27.4076 134.58 27.3854 134.833Z" fill="#1C75BC"/>
<path d="M117.558 68.9441L112.219 74.2827C111.368 75.1341 111.368 76.5144 112.219 77.3657L117.558 82.7044C118.409 83.5557 119.79 83.5557 120.641 82.7044L125.98 77.3657C126.831 76.5144 126.831 75.1341 125.98 74.2827L120.641 68.9441C119.79 68.0927 118.409 68.0927 117.558 68.9441Z" fill="#00A79D"/>
<path d="M133.36 93.8799L132.129 96.7795C131.932 97.2422 132.148 97.7764 132.611 97.9728L135.51 99.2036C135.973 99.3999 136.507 99.1841 136.704 98.7215L137.934 95.8219C138.131 95.3592 137.915 94.825 137.452 94.6286L134.553 93.3978C134.09 93.2015 133.556 93.4173 133.36 93.8799Z" fill="#1C75BC"/>
<path d="M8.33974 137.027L7.48543 143.985C7.3488 145.098 8.14012 146.111 9.2529 146.247L16.2107 147.102C17.3234 147.238 18.3363 146.447 18.4729 145.334L19.3272 138.376C19.4639 137.264 18.6725 136.251 17.5598 136.114L10.602 135.26C9.48922 135.123 8.47637 135.915 8.33974 137.027Z" fill="#1C75BC"/>
<path d="M14.9049 155.353L9.63697 160.621C8.79344 161.465 8.79343 162.832 9.63696 163.676L14.9049 168.944C15.7484 169.787 17.1161 169.787 17.9596 168.944L23.2276 163.676C24.0711 162.832 24.0711 161.465 23.2276 160.621L17.9596 155.353C17.1161 154.51 15.7484 154.51 14.9049 155.353Z" fill="#00AEEF"/>
<path d="M47.3007 140.708L42.0611 145.948C41.2253 146.783 41.2253 148.138 42.0611 148.974L47.3007 154.214C48.1364 155.05 49.4914 155.05 50.3271 154.214L55.5668 148.974C56.4025 148.138 56.4025 146.783 55.5668 145.948L50.3271 140.708C49.4914 139.872 48.1364 139.872 47.3007 140.708Z" fill="#27AAE1"/>
<path d="M119.744 139.07L115.914 145.703C115.304 146.76 115.666 148.112 116.723 148.722L123.357 152.552C124.414 153.162 125.766 152.8 126.376 151.743L130.206 145.11C130.816 144.052 130.454 142.701 129.397 142.091L122.763 138.261C121.706 137.65 120.355 138.012 119.744 139.07Z" fill="#27AAE1"/>
<path d="M14.5787 120.244L11.5687 125.458C11.0882 126.29 11.3734 127.354 12.2056 127.835L17.4191 130.845C18.2513 131.325 19.3155 131.04 19.796 130.208L22.806 124.994C23.2865 124.162 23.0013 123.098 22.1691 122.618L16.9556 119.608C16.1234 119.127 15.0592 119.412 14.5787 120.244Z" fill="#27AAE1"/>
<path d="M75.2328 119.289L69.5406 124.981C68.6307 125.891 68.6307 127.367 69.5406 128.276L75.2328 133.969C76.1428 134.879 77.618 134.879 78.528 133.969L84.2202 128.276C85.1301 127.367 85.1301 125.891 84.2202 124.981L78.528 119.289C77.618 118.379 76.1428 118.379 75.2328 119.289Z" fill="#27AAE1"/>
<path d="M58.2778 28.9221L54.7402 36.1753C54.176 37.3319 54.6564 38.7268 55.8129 39.2909L63.0662 42.8286C64.2228 43.3927 65.6177 42.9124 66.1818 41.7558L69.7195 34.5025C70.2836 33.346 69.8033 31.9511 68.6467 31.3869L61.3934 27.8493C60.2368 27.2852 58.8419 27.7655 58.2778 28.9221Z" fill="#27AAE1"/>
<path d="M151.049 111.25L150.397 118.702C150.292 119.895 151.175 120.948 152.369 121.052L159.821 121.704C161.015 121.809 162.067 120.926 162.172 119.732L162.824 112.28C162.928 111.086 162.045 110.034 160.851 109.929L153.399 109.277C152.206 109.173 151.153 110.056 151.049 111.25Z" fill="#27AAE1"/>
<path d="M58.3925 9.0231L53.6623 15.3004C52.9078 16.3016 53.1078 17.7249 54.109 18.4794L60.3863 23.2097C61.3876 23.9642 62.8109 23.7641 63.5653 22.7629L68.2956 16.4856C69.0501 15.4844 68.8501 14.0611 67.8488 13.3066L61.5716 8.57632C60.5703 7.82183 59.147 8.02186 58.3925 9.0231Z" fill="#00AEEF"/>
<path d="M170.579 62.2067L170.325 62.4613C170.282 62.5042 170.282 62.5739 170.325 62.6168L170.579 62.8714C170.622 62.9144 170.692 62.9144 170.735 62.8714L170.99 62.6168C171.032 62.5739 171.032 62.5042 170.99 62.4613L170.735 62.2067C170.692 62.1638 170.622 62.1638 170.579 62.2067Z" fill="#00A79D"/>
<path d="M75.0958 153.689L74.44 154.417C74.3366 154.532 74.3458 154.709 74.4608 154.812L75.189 155.468C75.304 155.572 75.481 155.562 75.5845 155.447L76.2402 154.719C76.3437 154.604 76.3344 154.427 76.2195 154.324L75.4912 153.668C75.3763 153.564 75.1993 153.574 75.0958 153.689Z" fill="#00A79D"/>
<path d="M129.671 130.091L127.421 137.014C127.063 138.118 127.666 139.302 128.769 139.661L135.693 141.91C136.796 142.269 137.981 141.665 138.339 140.562L140.589 133.638C140.947 132.535 140.343 131.351 139.24 130.992L132.317 128.743C131.214 128.384 130.029 128.988 129.671 130.091Z" fill="#00A79D"/>
<path d="M48.156 72.0478L46.7476 74.6967C46.522 75.1209 46.683 75.6477 47.1073 75.8733L49.7561 77.2817C50.1804 77.5073 50.7071 77.3462 50.9327 76.922L52.3411 74.2731C52.5667 73.8489 52.4057 73.3221 51.9814 73.0965L49.3326 71.6881C48.9083 71.4625 48.3815 71.6236 48.156 72.0478Z" fill="#27AAE1"/>
<path d="M42.7109 113.056L37.3227 118.444C36.4636 119.304 36.4636 120.696 37.3227 121.556L42.7109 126.944C43.57 127.803 44.963 127.803 45.8222 126.944L51.2103 121.556C52.0695 120.696 52.0695 119.304 51.2103 118.444L45.8222 113.056C44.963 112.197 43.57 112.197 42.7109 113.056Z" fill="#1C75BC"/>
<path d="M21.4111 96.6758L21.0415 100.9C20.9823 101.576 21.4829 102.173 22.1596 102.232L26.3835 102.602C27.0602 102.661 27.6568 102.16 27.716 101.484L28.0856 97.2598C28.1448 96.583 27.6442 95.9864 26.9675 95.9272L22.7436 95.5577C22.0669 95.4985 21.4703 95.9991 21.4111 96.6758Z" fill="#27AAE1"/>
<path d="M52.2269 104.907L50.7869 109.339C50.5582 110.043 50.9434 110.799 51.6472 111.027L56.0791 112.467C56.783 112.696 57.539 112.311 57.7676 111.607L59.2077 107.175C59.4364 106.471 59.0512 105.715 58.3473 105.487L53.9154 104.047C53.2116 103.818 52.4556 104.203 52.2269 104.907Z" fill="#1C75BC"/>
<path d="M77.1947 9.94041L75.9917 17.5357C75.799 18.7522 76.6289 19.8945 77.8454 20.0871L85.4407 21.2901C86.6571 21.4828 87.7994 20.6529 87.9921 19.4364L89.1951 11.8411C89.3877 10.6247 88.5578 9.48236 87.3414 9.2897L79.746 8.08672C78.5296 7.89405 77.3873 8.72398 77.1947 9.94041Z" fill="#00AEEF"/>
<path d="M38.785 31.4393L32.909 37.3154C31.9678 38.2566 31.9678 39.7825 32.909 40.7237L38.785 46.5997C39.7262 47.5409 41.2521 47.5409 42.1933 46.5997L48.0693 40.7237C49.0105 39.7825 49.0105 38.2566 48.0693 37.3154L42.1933 31.4393C41.2521 30.4982 39.7262 30.4982 38.785 31.4393Z" fill="#00A79D"/>
<path d="M111.71 27.6869L109.687 29.7092C109.367 30.0295 109.367 30.5487 109.687 30.8689L111.71 32.8912C112.03 33.2114 112.549 33.2114 112.869 32.8912L114.892 30.8689C115.212 30.5487 115.212 30.0295 114.892 29.7092L112.869 27.6869C112.549 27.3667 112.03 27.3667 111.71 27.6869Z" fill="#00A79D"/>
<path d="M35.7431 157.66L30.4893 162.913C29.6496 163.753 29.6496 165.114 30.4893 165.954L35.7431 171.208C36.5827 172.047 37.944 172.047 38.7836 171.208L44.0374 165.954C44.8771 165.114 44.8771 163.753 44.0374 162.913L38.7836 157.66C37.944 156.82 36.5827 156.82 35.7431 157.66Z" fill="#1C75BC"/>
<path d="M102.989 132.404L99.7272 139.091C99.2066 140.158 99.6498 141.445 100.717 141.966L107.404 145.227C108.471 145.748 109.758 145.305 110.279 144.238L113.54 137.55C114.061 136.483 113.618 135.196 112.551 134.676L105.864 131.414C104.796 130.894 103.509 131.337 102.989 132.404Z" fill="#27AAE1"/>
<path d="M143.477 117.813L138.329 122.96C137.509 123.78 137.509 125.11 138.329 125.93L143.477 131.078C144.297 131.898 145.626 131.898 146.447 131.078L151.594 125.93C152.414 125.11 152.414 123.78 151.594 122.96L146.446 117.813C145.626 116.993 144.297 116.993 143.477 117.813Z" fill="#1C75BC"/>
<path d="M88.6203 79.7983L86.0842 87.1639C85.6778 88.3441 86.3051 89.6302 87.4853 90.0366L94.8509 92.5727C96.031 92.9791 97.3171 92.3518 97.7235 91.1717L100.26 83.8061C100.666 82.6259 100.039 81.3398 98.8586 80.9334L91.493 78.3972C90.3128 77.9909 89.0267 78.6182 88.6203 79.7983Z" fill="#27AAE1"/>
<path d="M86.9736 155.025L81.4723 160.526C80.5937 161.405 80.5937 162.829 81.4723 163.708L86.9736 169.209C87.8523 170.088 89.2769 170.088 90.1556 169.209L95.6569 163.708C96.5356 162.829 96.5356 161.405 95.6569 160.526L90.1556 155.025C89.2769 154.146 87.8523 154.146 86.9736 155.025Z" fill="#00AEEF"/>
<path d="M51.7325 162.018L49.5237 165.293C49.1716 165.815 49.3094 166.524 49.8313 166.876L53.106 169.085C53.628 169.437 54.3365 169.299 54.6886 168.777L56.8974 165.502C57.2495 164.98 57.1118 164.272 56.5898 163.92L53.3151 161.711C52.7931 161.359 52.0846 161.497 51.7325 162.018Z" fill="#27AAE1"/>
<path d="M145.49 18.2597L140.928 24.0988C140.2 25.0302 140.365 26.375 141.297 27.1027L147.136 31.6647C148.067 32.3924 149.412 32.2272 150.14 31.2959L154.702 25.4567C155.429 24.5254 155.264 23.1805 154.333 22.4529L148.494 17.8908C147.562 17.1632 146.218 17.3283 145.49 18.2597Z" fill="#00A79D"/>
<path d="M69.517 83.7698L65.4724 87.8145C64.8241 88.4628 64.8241 89.5138 65.4724 90.1621L69.517 94.2067C70.1653 94.855 71.2164 94.855 71.8646 94.2067L75.9093 90.1621C76.5576 89.5138 76.5575 88.4628 75.9093 87.8145L71.8646 83.7698C71.2164 83.1216 70.1653 83.1216 69.517 83.7698Z" fill="#00A79D"/>
<path d="M32.4998 16.095L32.0065 21.7334C31.9275 22.6357 32.595 23.4312 33.4973 23.5101L39.1357 24.0034C40.038 24.0824 40.8335 23.4149 40.9124 22.5126L41.4057 16.8741C41.4847 15.9718 40.8172 15.1764 39.9149 15.0974L34.2765 14.6041C33.3742 14.5252 32.5787 15.1927 32.4998 16.095Z" fill="#27AAE1"/>
<path d="M125.296 45.2961L123.492 53.1106C123.204 54.359 123.982 55.6048 125.231 55.893L133.045 57.6971C134.294 57.9853 135.539 57.2069 135.828 55.9584L137.632 48.144C137.92 46.8955 137.142 45.6498 135.893 45.3616L128.079 43.5575C126.83 43.2692 125.584 44.0476 125.296 45.2961Z" fill="#27AAE1"/>
<path d="M129.711 11.4963L127.37 13.8368C126.996 14.2117 126.996 14.8195 127.37 15.1944L129.711 17.535C130.086 17.9099 130.694 17.9099 131.069 17.535L133.409 15.1944C133.784 14.8195 133.784 14.2117 133.409 13.8368L131.069 11.4963C130.694 11.1214 130.086 11.1214 129.711 11.4963Z" fill="#00AEEF"/>
<path d="M91.6054 27.4486L89.9012 29.1527C89.6318 29.4222 89.6318 29.8591 89.9012 30.1285L91.6054 31.8327C91.8748 32.1021 92.3117 32.1021 92.5812 31.8327L94.2853 30.1285C94.5548 29.8591 94.5548 29.4222 94.2853 29.1527L92.5812 27.4486C92.3117 27.1791 91.8748 27.1791 91.6054 27.4486Z" fill="#27AAE1"/>
<path d="M88.5447 140.947L85.5682 147.05C85.0912 148.028 85.4973 149.207 86.4752 149.684L92.578 152.66C93.5559 153.137 94.7353 152.731 95.2122 151.753L98.1888 145.651C98.6657 144.673 98.2596 143.493 97.2817 143.016L91.1789 140.04C90.201 139.563 89.0217 139.969 88.5447 140.947Z" fill="#1C75BC"/>
<path d="M159.227 35.0846L158.831 35.4806C158.769 35.5431 158.769 35.6444 158.831 35.7069L159.227 36.1029C159.29 36.1654 159.391 36.1653 159.454 36.1029L159.85 35.7069C159.912 35.6444 159.912 35.5431 159.85 35.4806L159.454 35.0846C159.391 35.0222 159.29 35.0221 159.227 35.0846Z" fill="#27AAE1"/>
<path d="M114.632 116.457L109.484 121.605C108.664 122.425 108.664 123.755 109.484 124.575L114.632 129.723C115.452 130.543 116.782 130.543 117.602 129.723L122.75 124.575C123.57 123.755 123.57 122.425 122.75 121.605L117.602 116.457C116.782 115.637 115.452 115.637 114.632 116.457Z" fill="#1C75BC"/>
<path d="M82.4269 106.069L81.5376 112.397C81.3961 113.403 82.0973 114.333 83.1036 114.475L89.4314 115.364C90.4377 115.506 91.3681 114.804 91.5096 113.798L92.3989 107.47C92.5403 106.464 91.8392 105.534 90.8329 105.392L84.5051 104.503C83.4987 104.361 82.5683 105.063 82.4269 106.069Z" fill="#00AEEF"/>
<path d="M68.2559 49.6021L63.0515 54.8064C62.2197 55.6382 62.2197 56.9868 63.0515 57.8186L68.2559 63.0229C69.0877 63.8548 70.4363 63.8548 71.2681 63.0229L76.4724 57.8186C77.3042 56.9868 77.3043 55.6382 76.4724 54.8064L71.2681 49.6021C70.4363 48.7702 69.0877 48.7702 68.2559 49.6021Z" fill="#00A79D"/>
<path d="M160.403 72.8466L157.78 75.47C157.362 75.8878 157.362 76.5653 157.78 76.9832L160.403 79.6065C160.821 80.0244 161.499 80.0244 161.917 79.6065L164.54 76.9832C164.958 76.5653 164.958 75.8878 164.54 75.47L161.917 72.8466C161.499 72.4287 160.821 72.4287 160.403 72.8466Z" fill="#27AAE1"/>
<path d="M95.907 93.8222L92.0339 100.268C91.4138 101.3 91.7477 102.639 92.7798 103.259L99.2257 107.133C100.258 107.753 101.597 107.419 102.217 106.387L106.09 99.9408C106.71 98.9088 106.376 97.5695 105.344 96.9494L98.8984 93.0764C97.8664 92.4563 96.5271 92.7902 95.907 93.8222Z" fill="#27AAE1"/>
<path d="M165.892 97.2624L160.603 102.552C159.756 103.399 159.756 104.773 160.603 105.62L165.892 110.91C166.74 111.757 168.114 111.757 168.961 110.91L174.25 105.62C175.098 104.773 175.098 103.399 174.25 102.552L168.961 97.2624C168.114 96.4149 166.74 96.4149 165.892 97.2624Z" fill="#00A79D"/>
<path d="M46.9009 51.3097L43.3811 57.6594C42.8189 58.6738 43.1854 59.9519 44.1997 60.5142L50.5495 64.0339C51.5639 64.5962 52.842 64.2297 53.4043 63.2153L56.924 56.8656C57.4863 55.8512 57.1198 54.573 56.1054 54.0108L49.7557 50.491C48.7413 49.9288 47.4631 50.2953 46.9009 51.3097Z" fill="#00A79D"/>
<path d="M34.6977 99.6384L31.7682 106.889C31.3007 108.046 31.8598 109.363 33.0171 109.831L40.2676 112.76C41.4249 113.228 42.7421 112.669 43.2097 111.512L46.1391 104.261C46.6067 103.104 46.0476 101.787 44.8903 101.319L37.6397 98.3895C36.4824 97.922 35.1652 98.4811 34.6977 99.6384Z" fill="#00AEEF"/>
<path d="M169.73 38.6431L164.364 44.01C163.508 44.8653 163.508 46.2519 164.364 47.1072L169.73 52.4741C170.586 53.3293 171.972 53.3293 172.828 52.4741L178.195 47.1071C179.05 46.2519 179.05 44.8653 178.195 44.01L172.828 38.6431C171.972 37.7878 170.586 37.7878 169.73 38.6431Z" fill="#1C75BC"/>
<path d="M148.803 132.99L145.95 139.71C145.495 140.783 145.996 142.021 147.068 142.477L153.788 145.329C154.861 145.784 156.099 145.284 156.555 144.211L159.407 137.492C159.862 136.419 159.362 135.18 158.289 134.725L151.569 131.873C150.497 131.417 149.258 131.918 148.803 132.99Z" fill="#00A79D"/>
<path d="M132.904 115.756L132.617 116.075C132.569 116.129 132.573 116.211 132.626 116.259L132.946 116.547C132.999 116.595 133.081 116.59 133.13 116.537L133.417 116.217C133.465 116.164 133.461 116.082 133.408 116.034L133.088 115.746C133.035 115.698 132.953 115.702 132.904 115.756Z" fill="#1C75BC"/>
<path d="M55.8073 122.837L53.2695 129.809C52.8653 130.92 53.4379 132.148 54.5485 132.552L61.521 135.09C62.6317 135.494 63.8597 134.922 64.2639 133.811L66.8017 126.838C67.2059 125.728 66.6333 124.5 65.5227 124.096L58.5502 121.558C57.4396 121.154 56.2115 121.726 55.8073 122.837Z" fill="#27AAE1"/>
<path d="M44.1512 85.4411L39.9086 89.6837C39.2291 90.3632 39.2291 91.4649 39.9086 92.1444L44.1512 96.3871C44.8307 97.0666 45.9325 97.0666 46.612 96.3871L50.8546 92.1444C51.5341 91.4649 51.5341 90.3632 50.8546 89.6837L46.612 85.4411C45.9325 84.7615 44.8307 84.7615 44.1512 85.4411Z" fill="#00A79D"/>
<path d="M68.7353 100.792L63.3378 106.381C62.4784 107.271 62.5031 108.689 63.3931 109.548L68.9823 114.946C69.8722 115.805 71.2903 115.78 72.1497 114.89L77.5472 109.301C78.4066 108.411 78.3818 106.993 77.4919 106.134L71.9026 100.736C71.0127 99.8769 69.5946 99.9017 68.7353 100.792Z" fill="#1C75BC"/>
<path d="M149.536 94.4373L145.958 98.0152C145.384 98.5893 145.384 99.5201 145.958 100.094L149.536 103.672C150.11 104.246 151.04 104.246 151.615 103.672L155.192 100.094C155.767 99.5201 155.767 98.5893 155.192 98.0152L151.615 94.4373C151.04 93.8632 150.11 93.8632 149.536 94.4373Z" fill="#27AAE1"/>
<path d="M106.118 13.6385L104.11 15.6467C103.789 15.967 103.789 16.4862 104.11 16.8064L106.118 18.8146C106.438 19.1348 106.957 19.1348 107.277 18.8146L109.286 16.8064C109.606 16.4862 109.606 15.967 109.286 15.6467L107.277 13.6385C106.957 13.3183 106.438 13.3183 106.118 13.6385Z" fill="#00A79D"/>
<path d="M105.521 41.4779L100.111 46.8873C99.2443 47.7542 99.2443 49.1598 100.111 50.0268L105.521 55.4362C106.388 56.3031 107.793 56.3031 108.66 55.4362L114.07 50.0268C114.937 49.1598 114.937 47.7542 114.07 46.8873L108.66 41.4779C107.793 40.6109 106.388 40.6109 105.521 41.4779Z" fill="#00A79D"/>
<path d="M112.897 86.155L110.249 89.3111C109.826 89.8145 109.892 90.5651 110.395 90.9876L113.551 93.6359C114.055 94.0583 114.805 93.9926 115.228 93.4892L117.876 90.3331C118.299 89.8296 118.233 89.079 117.729 88.6566L114.573 86.0083C114.07 85.5858 113.319 85.6515 112.897 86.155Z" fill="#1C75BC"/>
<path d="M141.301 69.0074L137.407 75.2405C136.783 76.2381 137.087 77.5522 138.084 78.1756L144.317 82.0705C145.315 82.6939 146.629 82.3905 147.252 81.3929L151.147 75.1597C151.771 74.1621 151.467 72.848 150.47 72.2247L144.237 68.3298C143.239 67.7064 141.925 68.0098 141.301 69.0074Z" fill="#27AAE1"/>
<path d="M28.3068 76.3142L25.747 80.5743C25.3374 81.256 25.558 82.1406 26.2397 82.5502L30.4998 85.11C31.1815 85.5196 32.0662 85.299 32.4758 84.6173L35.0355 80.3572C35.4451 79.6755 35.2246 78.7908 34.5429 78.3812L30.2827 75.8215C29.601 75.4119 28.7164 75.6325 28.3068 76.3142Z" fill="#00A79D"/>
<path d="M67.3096 135.575L63.6044 139.28C63.0147 139.87 63.0147 140.826 63.6043 141.415L67.3096 145.121C67.8993 145.71 68.8554 145.71 69.4451 145.121L73.1503 141.415C73.74 140.826 73.74 139.87 73.1503 139.28L69.4451 135.575C68.8554 134.985 67.8993 134.985 67.3096 135.575Z" fill="#00A79D"/>
<path d="M120.804 100.983L117.657 104.241C117.154 104.762 117.169 105.591 117.689 106.094L120.948 109.24C121.468 109.743 122.298 109.729 122.8 109.208L125.947 105.949C126.449 105.429 126.435 104.6 125.915 104.097L122.656 100.95C122.136 100.448 121.306 100.462 120.804 100.983Z" fill="#00AEEF"/>
<path d="M23.8078 145.454L21.7157 152.75C21.3823 153.913 22.0546 155.126 23.2172 155.459L30.5132 157.551C31.6758 157.885 32.8886 157.212 33.222 156.05L35.3141 148.754C35.6475 147.591 34.9752 146.378 33.8126 146.045L26.5166 143.953C25.354 143.619 24.1412 144.292 23.8078 145.454Z" fill="#00AEEF"/>
<path d="M24.395 59.1151L19.1482 64.3618C18.3125 65.1975 18.3125 66.5525 19.1482 67.3882L24.395 72.6349C25.2307 73.4707 26.5856 73.4707 27.4214 72.6349L32.6681 67.3882C33.5038 66.5525 33.5038 65.1975 32.6681 64.3618L27.4214 59.1151C26.5856 58.2793 25.2307 58.2793 24.395 59.1151Z" fill="#1C75BC"/>
<path d="M92.0169 123.088L90.2987 124.807C90.0214 125.084 90.0214 125.533 90.2987 125.811L92.0169 127.529C92.2942 127.806 92.7438 127.806 93.021 127.529L94.7393 125.811C95.0166 125.533 95.0166 125.084 94.7393 124.807L93.021 123.088C92.7438 122.811 92.2942 122.811 92.0169 123.088Z" fill="#27AAE1"/>
<path d="M133.047 26.8977L129.618 30.3272C129.067 30.8778 129.067 31.7706 129.618 32.3212L133.047 35.7507C133.598 36.3013 134.491 36.3014 135.041 35.7507L138.471 32.3212C139.021 31.7706 139.021 30.8778 138.471 30.3272L135.041 26.8977C134.491 26.3471 133.598 26.3471 133.047 26.8977Z" fill="#1C75BC"/>
<path d="M104.485 153.789L99.8027 159.571C99.0555 160.494 99.1978 161.848 100.121 162.595L105.903 167.277C106.825 168.025 108.179 167.882 108.926 166.96L113.609 161.178C114.356 160.255 114.214 158.901 113.291 158.154L107.509 153.472C106.586 152.724 105.232 152.867 104.485 153.789Z" fill="#00A79D"/>
<path d="M123.891 74.5495L120.998 77.8777C120.534 78.4112 120.591 79.2197 121.124 79.6835L124.453 82.5767C124.986 83.0405 125.795 82.984 126.259 82.4504L129.152 79.1222C129.616 78.5887 129.559 77.7802 129.025 77.3164L125.697 74.4232C125.164 73.9594 124.355 74.0159 123.891 74.5495Z" fill="#27AAE1"/>
<path d="M75.8661 23.7663L70.5769 29.0554C69.7295 29.9029 69.7295 31.2768 70.5769 32.1243L75.8661 37.4134C76.7135 38.2609 78.0875 38.2609 78.9349 37.4134L84.2241 32.1243C85.0715 31.2768 85.0715 29.9029 84.2241 29.0554L78.9349 23.7663C78.0875 22.9188 76.7135 22.9188 75.8661 23.7663Z" fill="#27AAE1"/>
<path d="M38.3849 2.03834L37.1777 6.88012C36.9853 7.65178 37.4549 8.43331 38.2266 8.62571L43.0683 9.8329C43.84 10.0253 44.6215 9.55571 44.8139 8.78404L46.0211 3.94227C46.2135 3.1706 45.7439 2.38907 44.9723 2.19667L40.1305 0.989481C39.3588 0.797083 38.5773 1.26668 38.3849 2.03834Z" fill="#00A79D"/>
<path d="M119.854 154.359L117.978 158.383C117.679 159.024 117.956 159.785 118.597 160.084L122.621 161.96C123.262 162.259 124.023 161.982 124.322 161.341L126.199 157.317C126.497 156.677 126.22 155.915 125.579 155.616L121.555 153.74C120.915 153.441 120.153 153.718 119.854 154.359Z" fill="#27AAE1"/>
<path d="M85.4774 64.9763L82.7324 69.3692C82.2964 70.0671 82.5086 70.9863 83.2065 71.4224L87.5994 74.1674C88.2972 74.6034 89.2165 74.3912 89.6525 73.6934L92.3975 69.3005C92.8336 68.6026 92.6214 67.6834 91.9235 67.2473L87.5306 64.5023C86.8327 64.0662 85.9135 64.2785 85.4774 64.9763Z" fill="#1C75BC"/>
<path d="M132.561 61.6236L128.934 65.2511C128.352 65.833 128.352 66.7764 128.934 67.3583L132.561 70.9857C133.143 71.5676 134.086 71.5676 134.668 70.9857L138.296 67.3583C138.878 66.7764 138.878 65.833 138.296 65.2511L134.668 61.6236C134.086 61.0418 133.143 61.0418 132.561 61.6236Z" fill="#27AAE1"/>
<path d="M164.488 119.895L160.464 123.918C159.824 124.559 159.824 125.597 160.464 126.238L164.488 130.261C165.128 130.902 166.166 130.902 166.807 130.261L170.83 126.238C171.471 125.597 171.471 124.559 170.83 123.918L166.807 119.895C166.166 119.255 165.128 119.255 164.488 119.895Z" fill="#27AAE1"/>
<path d="M26.6254 110.603L26.0032 111.226C25.9056 111.323 25.9056 111.481 26.0032 111.579L26.6254 112.201C26.7231 112.299 26.8814 112.299 26.979 112.201L27.6013 111.579C27.6989 111.481 27.6989 111.323 27.6013 111.226L26.979 110.603C26.8814 110.506 26.7231 110.506 26.6254 110.603Z" fill="#27AAE1"/>
<path d="M51.071 2.47902L47.6416 5.90849C47.0948 6.45522 47.0948 7.34165 47.6416 7.88839L51.071 11.3179C51.6178 11.8646 52.5042 11.8646 53.0509 11.3179L56.4804 7.88839C57.0271 7.34165 57.0271 6.45522 56.4804 5.90849L53.0509 2.47902C52.5042 1.93229 51.6178 1.93229 51.071 2.47902Z" fill="#27AAE1"/>
<path d="M73.6884 37.9771L70.1034 41.5621C69.5293 42.1362 69.5293 43.0669 70.1034 43.641L73.6884 47.226C74.2625 47.8001 75.1933 47.8001 75.7673 47.226L79.3524 43.641C79.9264 43.0669 79.9264 42.1362 79.3524 41.5621L75.7673 37.9771C75.1933 37.403 74.2625 37.403 73.6884 37.9771Z" fill="#00AEEF"/>
<path d="M93.9521 8.42043L90.5227 11.8499C89.9759 12.3966 89.9759 13.2831 90.5227 13.8298L93.9521 17.2593C94.4989 17.806 95.3853 17.806 95.932 17.2593L99.3615 13.8298C99.9082 13.2831 99.9082 12.3966 99.3615 11.8499L95.932 8.42043C95.3853 7.8737 94.4989 7.87369 93.9521 8.42043Z" fill="#27AAE1"/>
<path d="M123.294 38.8864L123.149 39.3334C123.127 39.4017 123.164 39.475 123.233 39.4972L123.68 39.6424C123.748 39.6646 123.821 39.6273 123.843 39.559L123.989 39.112C124.011 39.0437 123.973 38.9704 123.905 38.9482L123.458 38.8029C123.39 38.7807 123.316 38.8181 123.294 38.8864Z" fill="#00AEEF"/>
<path d="M140.829 35.8987L139.875 41.3052C139.723 42.17 140.3 42.9947 141.165 43.1472L146.572 44.1005C147.436 44.253 148.261 43.6756 148.414 42.8108L149.367 37.4042C149.519 36.5394 148.942 35.7147 148.077 35.5622L142.67 34.6089C141.806 34.4564 140.981 35.0339 140.829 35.8987Z" fill="#27AAE1"/>
<path d="M102.466 76.2854L101.738 77.0137C101.625 77.1269 101.625 77.3106 101.738 77.4238L102.466 78.1521C102.58 78.2654 102.763 78.2654 102.876 78.1521L103.605 77.4238C103.718 77.3106 103.718 77.1269 103.605 77.0137L102.876 76.2854C102.763 76.1721 102.58 76.1721 102.466 76.2854Z" fill="#27AAE1"/>
<path d="M86.1451 36.6325L82.3338 40.4438C81.7246 41.053 81.7246 42.0407 82.3338 42.65L86.1451 46.4613C86.7543 47.0705 87.7421 47.0705 88.3513 46.4613L92.1626 42.65C92.7718 42.0407 92.7718 41.053 92.1626 40.4438L88.3513 36.6325C87.7421 36.0233 86.7543 36.0233 86.1451 36.6325Z" fill="#27AAE1"/>
<path d="M99.3491 112.751L99.0246 113.291C98.9734 113.376 99.001 113.487 99.0862 113.538L99.6262 113.862C99.7114 113.914 99.822 113.886 99.8732 113.801L100.198 113.261C100.249 113.176 100.221 113.065 100.136 113.014L99.5961 112.689C99.5108 112.638 99.4003 112.666 99.3491 112.751Z" fill="#27AAE1"/>
<path d="M42.4177 128.683L39.5244 133.313C39.0649 134.048 39.2885 135.017 40.0238 135.477L44.6542 138.37C45.3895 138.829 46.3581 138.606 46.8176 137.87L49.7109 133.24C50.1704 132.505 49.9468 131.536 49.2115 131.077L44.5811 128.183C43.8458 127.724 42.8772 127.947 42.4177 128.683Z" fill="#00A79D"/>
<path d="M158.123 58.7285L157.438 60.0739C157.33 60.2855 157.414 60.5444 157.626 60.6522L158.971 61.3378C159.183 61.4456 159.442 61.3615 159.55 61.1499L160.235 59.8044C160.343 59.5928 160.259 59.3339 160.047 59.2261L158.702 58.5406C158.49 58.4328 158.231 58.5169 158.123 58.7285Z" fill="#27AAE1"/>
<path d="M66.2394 0.421708L62.7746 3.88653C62.2201 4.44108 62.2201 5.34017 62.7746 5.89472L66.2394 9.35954C66.794 9.91408 67.6931 9.91408 68.2476 9.35954L71.7124 5.89471C72.267 5.34017 72.267 4.44108 71.7124 3.88653L68.2476 0.421709C67.6931 -0.132835 66.794 -0.132837 66.2394 0.421708Z" fill="#27AAE1"/>
<path d="M160.165 87.9459L157.881 90.2298C157.514 90.5969 157.514 91.1921 157.881 91.5592L160.165 93.8432C160.533 94.2103 161.128 94.2103 161.495 93.8432L163.779 91.5592C164.146 91.1921 164.146 90.5969 163.779 90.2299L161.495 87.9459C161.128 87.5788 160.533 87.5788 160.165 87.9459Z" fill="#00A79D"/>
<path d="M13.3838 106.906L9.66439 110.625C9.06689 111.223 9.06689 112.191 9.66439 112.789L13.3838 116.508C13.9813 117.106 14.95 117.106 15.5475 116.508L19.2669 112.789C19.8644 112.191 19.8644 111.223 19.2669 110.625L15.5475 106.906C14.95 106.308 13.9813 106.308 13.3838 106.906Z" fill="#00A79D"/>
<path d="M47.3748 21.4345L44.1575 24.6518C43.6459 25.1634 43.6459 25.9928 44.1575 26.5044L47.3748 29.7218C47.8864 30.2334 48.7159 30.2334 49.2275 29.7218L52.4448 26.5044C52.9564 25.9928 52.9564 25.1634 52.4448 24.6518L49.2275 21.4345C48.7159 20.9229 47.8864 20.9229 47.3748 21.4345Z" fill="#00A79D"/>
<path d="M77.6343 60.2329L74.2048 63.6624C73.6581 64.2091 73.6581 65.0956 74.2048 65.6423L77.6343 69.0718C78.181 69.6185 79.0674 69.6185 79.6142 69.0718L83.0436 65.6423C83.5904 65.0956 83.5904 64.2091 83.0436 63.6624L79.6142 60.2329C79.0674 59.6862 78.181 59.6862 77.6343 60.2329Z" fill="#00A79D"/>
<path d="M35.5569 62.5514L35.1691 66.9844C35.107 67.6942 35.632 68.3199 36.3417 68.382L40.7748 68.7698C41.4845 68.8319 42.1102 68.3069 42.1723 67.5971L42.5602 63.1641C42.6223 62.4543 42.0972 61.8286 41.3875 61.7666L36.9544 61.3787C36.2447 61.3166 35.619 61.8416 35.5569 62.5514Z" fill="#1C75BC"/>
<path d="M138.533 145.445L135.504 149.322C135.021 149.94 135.131 150.833 135.749 151.316L139.626 154.345C140.244 154.828 141.136 154.718 141.619 154.1L144.648 150.223C145.131 149.605 145.021 148.713 144.403 148.23L140.526 145.201C139.908 144.718 139.016 144.827 138.533 145.445Z" fill="#00AEEF"/>
<path d="M79.9432 75.9315L79.6189 78.2389C79.5674 78.6053 79.8227 78.9441 80.1891 78.9956L82.4964 79.3199C82.8629 79.3714 83.2017 79.1161 83.2532 78.7496L83.5774 76.4423C83.6289 76.0759 83.3736 75.7371 83.0072 75.6856L80.6999 75.3613C80.3334 75.3098 79.9947 75.5651 79.9432 75.9315Z" fill="#00A79D"/>
<path d="M7.00203 151.254L5.41104 152.845C5.15719 153.099 5.15719 153.51 5.41103 153.764L7.00202 155.355C7.25586 155.609 7.66743 155.609 7.92127 155.355L9.51226 153.764C9.7661 153.51 9.76609 153.099 9.51225 152.845L7.92126 151.254C7.66742 151 7.25587 151 7.00203 151.254Z" fill="#00AEEF"/>
<path d="M36.7112 52.0964L34.1797 54.6279C33.7736 55.034 33.7736 55.6925 34.1797 56.0987L36.7112 58.6301C37.1173 59.0363 37.7758 59.0363 38.182 58.6301L40.7134 56.0987C41.1195 55.6925 41.1195 55.034 40.7134 54.6279L38.182 52.0964C37.7758 51.6903 37.1173 51.6903 36.7112 52.0964Z" fill="#27AAE1"/>
<path d="M3.13742 162.966L2.96344 163.159C2.93388 163.192 2.93653 163.243 2.96937 163.272L3.16258 163.446C3.19541 163.476 3.246 163.473 3.27556 163.44L3.44954 163.247C3.4791 163.214 3.47645 163.164 3.44361 163.134L3.2504 162.96C3.21757 162.931 3.16698 162.933 3.13742 162.966Z" fill="#27AAE1"/>
<path d="M103.098 123.105L102.519 123.685C102.429 123.775 102.429 123.92 102.519 124.01L103.098 124.59C103.188 124.68 103.334 124.68 103.424 124.59L104.004 124.01C104.093 123.92 104.093 123.775 104.004 123.685L103.424 123.105C103.334 123.015 103.188 123.015 103.098 123.105Z" fill="#00AEEF"/>
<path d="M155.203 126.083L154.793 126.793C154.73 126.903 154.767 127.044 154.877 127.107L155.588 127.517C155.698 127.581 155.838 127.543 155.902 127.433L156.312 126.723C156.375 126.613 156.338 126.472 156.228 126.409L155.517 125.999C155.407 125.935 155.267 125.973 155.203 126.083Z" fill="#00A79D"/>
<path d="M144.561 61.7389L142.277 64.0228C141.91 64.3899 141.91 64.9851 142.277 65.3522L144.561 67.6361C144.928 68.0032 145.523 68.0032 145.891 67.6361L148.174 65.3522C148.542 64.9851 148.542 64.3899 148.174 64.0228L145.891 61.7389C145.523 61.3718 144.928 61.3718 144.561 61.7389Z" fill="#00A79D"/>
<path d="M70.7276 17.0444L68.2315 19.5405C67.8332 19.9388 67.8332 20.5846 68.2315 20.983L70.7276 23.4791C71.1259 23.8774 71.7718 23.8774 72.1701 23.4791L74.6662 20.983C75.0645 20.5846 75.0645 19.9388 74.6662 19.5405L72.1701 17.0444C71.7718 16.646 71.1259 16.6461 70.7276 17.0444Z" fill="#27AAE1"/>
<path d="M177.779 96.0057L176.839 96.9461C176.691 97.0945 176.691 97.3351 176.839 97.4835L177.779 98.424C177.928 98.5724 178.168 98.5724 178.317 98.424L179.257 97.4835C179.406 97.3351 179.406 97.0945 179.257 96.9461L178.317 96.0057C178.168 95.8573 177.928 95.8573 177.779 96.0057Z" fill="#27AAE1"/>
<path d="M120.609 21.6957L120.228 22.0775C120.169 22.1361 120.169 22.2311 120.228 22.2897L120.609 22.6715C120.668 22.7301 120.763 22.7301 120.822 22.6715L121.203 22.2897C121.262 22.2311 121.262 22.1361 121.203 22.0775L120.822 21.6957C120.763 21.6371 120.668 21.6371 120.609 21.6957Z" fill="#00A79D"/>
<path d="M59.5469 145.59L57.069 149.128C56.673 149.694 56.8105 150.473 57.376 150.869L60.9147 153.347C61.4802 153.743 62.2597 153.606 62.6556 153.04L65.1335 149.501C65.5295 148.936 65.392 148.157 64.8265 147.761L61.2878 145.283C60.7223 144.887 59.9428 145.024 59.5469 145.59Z" fill="#27AAE1"/>
<path d="M108.997 109.28L107.045 111.231C106.733 111.544 106.733 112.05 107.045 112.363L108.997 114.314C109.309 114.627 109.816 114.627 110.128 114.314L112.08 112.363C112.392 112.05 112.392 111.544 112.08 111.231L110.128 109.28C109.815 108.967 109.309 108.967 108.997 109.28Z" fill="#27AAE1"/>
<path d="M100.984 35.2003L100.003 37.3029C99.8467 37.6383 99.9918 38.0369 100.327 38.1933L102.43 39.1738C102.765 39.3302 103.164 39.1851 103.32 38.8497L104.301 36.7471C104.457 36.4117 104.312 36.0131 103.977 35.8567L101.874 34.8762C101.539 34.7198 101.14 34.8649 100.984 35.2003Z" fill="#1C75BC"/>
<path d="M149.688 61.7179L148.897 64.8907C148.77 65.3998 149.08 65.9154 149.589 66.0423L152.762 66.8334C153.271 66.9603 153.787 66.6505 153.913 66.1415L154.705 62.9686C154.832 62.4595 154.522 61.9439 154.013 61.817L150.84 61.0259C150.331 60.899 149.815 61.2088 149.688 61.7179Z" fill="#00A79D"/>
<path d="M56.1234 87.174L55.8759 87.4215C55.8368 87.4605 55.8368 87.5238 55.8759 87.5629L56.1234 87.8104C56.1624 87.8494 56.2257 87.8494 56.2648 87.8104L56.5123 87.5629C56.5513 87.5238 56.5513 87.4605 56.5123 87.4215L56.2648 87.174C56.2257 87.1349 56.1624 87.1349 56.1234 87.174Z" fill="#00A79D"/>
<path d="M115.881 131.804L114.492 135.619C114.271 136.227 114.584 136.898 115.191 137.119L119.006 138.508C119.614 138.729 120.285 138.415 120.506 137.808L121.895 133.993C122.116 133.386 121.803 132.714 121.195 132.493L117.38 131.105C116.773 130.884 116.102 131.197 115.881 131.804Z" fill="#00AEEF"/>
<path d="M179.87 65.2266L177.296 67.8005C176.886 68.2106 176.886 68.8754 177.296 69.2854L179.87 71.8593C180.28 72.2694 180.945 72.2694 181.355 71.8593L183.929 69.2854C184.339 68.8754 184.339 68.2106 183.929 67.8005L181.355 65.2266C180.945 64.8166 180.28 64.8166 179.87 65.2266Z" fill="#27AAE1"/>
<path d="M94.9781 43.2055L92.9416 45.242C92.6136 45.57 92.6136 46.1019 92.9416 46.4299L94.9781 48.4664C95.3061 48.7944 95.838 48.7944 96.166 48.4664L98.2025 46.4299C98.5305 46.1019 98.5305 45.57 98.2025 45.242L96.166 43.2055C95.838 42.8775 95.3061 42.8775 94.9781 43.2055Z" fill="#27AAE1"/>
<path d="M26.7191 43.461L24.515 46.2821C24.1648 46.7304 24.2442 47.3777 24.6925 47.7279L27.5136 49.9319C27.9619 50.2822 28.6091 50.2027 28.9594 49.7544L31.1634 46.9334C31.5137 46.4851 31.4342 45.8378 30.9859 45.4876L28.1648 43.2835C27.7166 42.9333 27.0693 43.0128 26.7191 43.461Z" fill="#00A79D"/>
<path d="M73.8021 2.39906L72.3216 5.72437C72.0857 6.25413 72.324 6.8748 72.8538 7.11067L76.1791 8.59119C76.7088 8.82705 77.3295 8.5888 77.5654 8.05904L79.0459 4.73373C79.2817 4.20397 79.0435 3.58331 78.5137 3.34744L75.1884 1.86692C74.6587 1.63105 74.038 1.8693 73.8021 2.39906Z" fill="#27AAE1"/>
<path d="M121.099 58.619L120.159 59.5594C120.01 59.7078 120.01 59.9484 120.159 60.0968L121.099 61.0373C121.247 61.1857 121.488 61.1857 121.636 61.0373L122.577 60.0968C122.725 59.9484 122.725 59.7078 122.577 59.5594L121.636 58.619C121.488 58.4706 121.247 58.4706 121.099 58.619Z" fill="#00A79D"/>
<path d="M141.205 108.774L140.589 109.39C140.492 109.487 140.492 109.646 140.589 109.743L141.205 110.358C141.302 110.456 141.46 110.456 141.558 110.358L142.173 109.743C142.271 109.646 142.271 109.487 142.173 109.39L141.558 108.774C141.46 108.677 141.302 108.677 141.205 108.774Z" fill="#27AAE1"/>
<path d="M49.366 13.0263L47.6124 14.7799C47.3312 15.0611 47.3312 15.517 47.6124 15.7982L49.366 17.5518C49.6472 17.833 50.1031 17.833 50.3842 17.5518L52.1379 15.7982C52.419 15.517 52.4191 15.0611 52.1379 14.7799L50.3842 13.0263C50.1031 12.7451 49.6472 12.7451 49.366 13.0263Z" fill="#00A79D"/>
<path d="M51.3026 37.0084L49.0187 39.2924C48.6516 39.6594 48.6516 40.2546 49.0187 40.6217L51.3026 42.9057C51.6697 43.2728 52.2649 43.2728 52.632 42.9057L54.916 40.6217C55.283 40.2546 55.283 39.6594 54.916 39.2923L52.632 37.0084C52.2649 36.6413 51.6697 36.6413 51.3026 37.0084Z" fill="#00A79D"/>
<path d="M131.893 152.758L129.609 155.042C129.242 155.409 129.242 156.005 129.609 156.372L131.893 158.656C132.26 159.023 132.855 159.023 133.222 158.656L135.506 156.372C135.873 156.005 135.873 155.409 135.506 155.042L133.222 152.758C132.855 152.391 132.26 152.391 131.893 152.758Z" fill="#27AAE1"/>
<path d="M152.238 13.14L150.534 14.8441C150.265 15.1136 150.265 15.5505 150.534 15.8199L152.238 17.5241C152.508 17.7935 152.945 17.7935 153.214 17.5241L154.918 15.8199C155.188 15.5505 155.188 15.1136 154.918 14.8441L153.214 13.14C152.945 12.8705 152.508 12.8705 152.238 13.14Z" fill="#27AAE1"/>
<path d="M57.2388 61.2127L55.295 63.7923C54.9825 64.2069 55.0654 64.7962 55.48 65.1087L58.0596 67.0525C58.4742 67.365 59.0635 67.2821 59.376 66.8675L61.3198 64.2879C61.6323 63.8733 61.5494 63.2839 61.1348 62.9715L58.5552 61.0276C58.1406 60.7152 57.5512 60.7981 57.2388 61.2127Z" fill="#00AEEF"/>
<path d="M154.46 44.067L152.176 46.351C151.809 46.718 151.809 47.3132 152.176 47.6803L154.46 49.9643C154.827 50.3314 155.422 50.3314 155.789 49.9643L158.073 47.6803C158.44 47.3132 158.44 46.718 158.073 46.351L155.789 44.067C155.422 43.6999 154.827 43.6999 154.46 44.067Z" fill="#27AAE1"/>
<path d="M171.483 112.422L170.387 113.518C170.211 113.693 170.211 113.978 170.387 114.154L171.483 115.25C171.659 115.426 171.943 115.426 172.119 115.25L173.215 114.154C173.391 113.978 173.391 113.693 173.215 113.518L172.119 112.422C171.943 112.246 171.659 112.246 171.483 112.422Z" fill="#27AAE1"/>
<path d="M102.002 2.97943L99.8102 5.17146C99.4627 5.51902 99.4627 6.08254 99.8102 6.43011L102.002 8.62214C102.35 8.9697 102.913 8.9697 103.261 8.62214L105.453 6.43011C105.801 6.08254 105.801 5.51902 105.453 5.17146L103.261 2.97943C102.913 2.63186 102.35 2.63186 102.002 2.97943Z" fill="#00AEEF"/>
<path d="M82.1525 48.4973L81.5779 50.6417C81.485 50.9884 81.6908 51.3449 82.0375 51.4378L84.1819 52.0123C84.5286 52.1053 84.885 51.8995 84.978 51.5527L85.5525 49.4084C85.6455 49.0616 85.4397 48.7052 85.0929 48.6123L82.9486 48.0377C82.6018 47.9448 82.2454 48.1506 82.1525 48.4973Z" fill="#00A79D"/>
<path d="M67.6138 166.891L66.0078 169.184C65.7512 169.551 65.8403 170.056 66.2067 170.312L68.5004 171.918C68.8668 172.175 69.3719 172.086 69.6285 171.719L71.2345 169.426C71.4911 169.059 71.402 168.554 71.0356 168.298L68.7419 166.692C68.3755 166.435 67.8704 166.524 67.6138 166.891Z" fill="#1C75BC"/>
<path d="M161.319 22.8744L160.429 25.9792C160.285 26.4783 160.574 26.9988 161.073 27.1419L164.178 28.0322C164.677 28.1753 165.197 27.8868 165.341 27.3877L166.231 24.2829C166.374 23.7838 166.085 23.2633 165.586 23.1202L162.482 22.2299C161.982 22.0868 161.462 22.3753 161.319 22.8744Z" fill="#27AAE1"/>
<path d="M50.6909 134.276L49.6393 137.33C49.4703 137.821 49.7312 138.356 50.222 138.525L53.2761 139.576C53.7669 139.745 54.3019 139.484 54.4709 138.994L55.5225 135.94C55.6915 135.449 55.4306 134.914 54.9397 134.745L51.8857 133.693C51.3948 133.524 50.8599 133.785 50.6909 134.276Z" fill="#00AEEF"/>
<path d="M29.064 33.853L28.538 34.9315C28.4532 35.1053 28.5254 35.3148 28.6991 35.3995L29.7777 35.9256C29.9514 36.0103 30.1609 35.9382 30.2457 35.7644L30.7717 34.6859C30.8564 34.5121 30.7843 34.3026 30.6106 34.2179L29.532 33.6918C29.3583 33.6071 29.1487 33.6792 29.064 33.853Z" fill="#00AEEF"/>
<path d="M118.565 8.53019L117.567 11.6021C117.406 12.0958 117.676 12.6261 118.17 12.7866L121.242 13.7847C121.736 13.9451 122.266 13.6749 122.426 13.1812L123.425 10.1093C123.585 9.61553 123.315 9.08522 122.821 8.9248L119.749 7.92667C119.255 7.76624 118.725 8.03645 118.565 8.53019Z" fill="#1C75BC"/>
<path d="M79.4221 136.372L76.2892 139.616C75.7866 140.137 75.8011 140.966 76.3215 141.469L79.5657 144.602C80.0862 145.104 80.9155 145.09 81.418 144.569L84.551 141.325C85.0535 140.805 85.0391 139.975 84.5186 139.473L81.2744 136.34C80.754 135.837 79.9246 135.852 79.4221 136.372Z" fill="#00A79D"/>
<path d="M31.9607 88.372L29.6131 90.7196C29.2382 91.0945 29.2382 91.7024 29.6131 92.0773L31.9607 94.4249C32.3356 94.7998 32.9435 94.7998 33.3184 94.4249L35.666 92.0773C36.0409 91.7024 36.0409 91.0945 35.666 90.7196L33.3184 88.372C32.9435 87.9971 32.3356 87.9971 31.9607 88.372Z" fill="#00AEEF"/>
<path d="M17.7785 83.9257L16.0978 87.0867C15.8308 87.5889 16.0214 88.2126 16.5237 88.4796L19.6846 90.1604C20.1869 90.4274 20.8106 90.2367 21.0776 89.7345L22.7583 86.5735C23.0254 86.0713 22.8347 85.4476 22.3325 85.1805L19.1715 83.4998C18.6692 83.2328 18.0456 83.4234 17.7785 83.9257Z" fill="#00A79D"/>
<path d="M113.455 6.18531L113.188 6.91827C113.147 7.03244 113.206 7.15869 113.32 7.20024L114.053 7.46702C114.167 7.50858 114.293 7.44971 114.335 7.33553L114.601 6.60257C114.643 6.4884 114.584 6.36215 114.47 6.32059L113.737 6.05382C113.623 6.01226 113.497 6.07113 113.455 6.18531Z" fill="#1C75BC"/>
<path d="M54.9205 47.354L54.5728 47.754C54.5184 47.8165 54.5251 47.9112 54.5876 47.9656L54.9876 48.3133C55.0501 48.3677 55.1448 48.361 55.1992 48.2985L55.5469 47.8985C55.6012 47.836 55.5946 47.7413 55.5321 47.6869L55.1321 47.3392C55.0696 47.2848 54.9748 47.2915 54.9205 47.354Z" fill="#00A79D"/>
<path d="M26.4845 50.4068L24.2006 52.6908C23.8335 53.0579 23.8335 53.6531 24.2006 54.0202L26.4845 56.3041C26.8516 56.6712 27.4468 56.6712 27.8139 56.3041L30.0978 54.0201C30.4649 53.6531 30.4649 53.0579 30.0978 52.6908L27.8139 50.4068C27.4468 50.0397 26.8516 50.0397 26.4845 50.4068Z" fill="#00A79D"/>
<path d="M84.048 93.0604L82.63 97.6985C82.4023 98.4432 82.8215 99.2314 83.5662 99.4591L88.2042 100.877C88.9489 101.105 89.7372 100.686 89.9649 99.941L91.3829 95.3029C91.6106 94.5582 91.1914 93.7699 90.4467 93.5423L85.8086 92.1243C85.064 91.8966 84.2757 92.3157 84.048 93.0604Z" fill="#00A79D"/>
<path d="M137.125 81.0246L134.169 83.9803C133.697 84.4529 133.697 85.219 134.169 85.6915L137.125 88.6472C137.597 89.1198 138.363 89.1198 138.836 88.6472L141.792 85.6915C142.264 85.219 142.264 84.4529 141.792 83.9803L138.836 81.0246C138.363 80.5521 137.597 80.5521 137.125 81.0246Z" fill="#27AAE1"/>
<path d="M115.426 42.9952L114.966 45.605C114.892 46.0238 115.172 46.4231 115.591 46.497L118.2 46.9572C118.619 47.031 119.018 46.7514 119.092 46.3326L119.552 43.7228C119.626 43.304 119.347 42.9047 118.928 42.8308L116.318 42.3706C115.899 42.2968 115.5 42.5764 115.426 42.9952Z" fill="#00A79D"/>
<path d="M78.2837 97.7446L75.9291 100.099C75.5502 100.478 75.5502 101.092 75.9291 101.471L78.2837 103.826C78.6625 104.205 79.2767 104.205 79.6555 103.826L82.0102 101.471C82.389 101.092 82.389 100.478 82.0102 100.099L79.6555 97.7446C79.2767 97.3658 78.6625 97.3658 78.2837 97.7446Z" fill="#27AAE1"/>
<path d="M63.091 160.114L62.6084 164.044C62.5317 164.669 62.9761 165.238 63.601 165.315L67.5315 165.797C68.1564 165.874 68.7252 165.43 68.8019 164.805L69.2845 160.874C69.3612 160.249 68.9168 159.681 68.2919 159.604L64.3614 159.121C63.7365 159.044 63.1677 159.489 63.091 160.114Z" fill="#00A79D"/>
<path d="M107.46 146.461L106.099 150.201C105.881 150.797 106.189 151.457 106.786 151.675L110.526 153.036C111.123 153.253 111.783 152.945 112 152.348L113.361 148.609C113.578 148.012 113.271 147.352 112.674 147.135L108.934 145.773C108.337 145.556 107.677 145.864 107.46 146.461Z" fill="#27AAE1"/>
<path d="M37.6833 137.102L35.3993 139.386C35.0322 139.753 35.0322 140.348 35.3993 140.715L37.6833 142.999C38.0503 143.367 38.6455 143.367 39.0126 142.999L41.2966 140.715C41.6637 140.348 41.6637 139.753 41.2966 139.386L39.0126 137.102C38.6455 136.735 38.0503 136.735 37.6833 137.102Z" fill="#27AAE1"/>
<path d="M33.4371 3.88176L32.0017 5.31718C31.7713 5.54759 31.7713 5.92116 32.0017 6.15157L33.4371 7.58699C33.6675 7.8174 34.0411 7.8174 34.2715 7.58699L35.7069 6.15157C35.9373 5.92116 35.9373 5.54759 35.7069 5.31718L34.2715 3.88176C34.0411 3.65135 33.6675 3.65135 33.4371 3.88176Z" fill="#27AAE1"/>
<path d="M61.4216 168.17L61.315 169.184C61.2982 169.344 61.4138 169.486 61.5731 169.503L62.5875 169.61C62.7468 169.626 62.8895 169.511 62.9062 169.351L63.0128 168.337C63.0296 168.178 62.914 168.035 62.7547 168.018L61.7403 167.912C61.581 167.895 61.4383 168.011 61.4216 168.17Z" fill="#1C75BC"/>
<path d="M159.441 129.028L158.274 130.195C158.09 130.379 158.09 130.676 158.274 130.86L159.441 132.026C159.624 132.21 159.922 132.21 160.105 132.026L161.272 130.86C161.456 130.676 161.456 130.379 161.272 130.195L160.105 129.028C159.922 128.845 159.624 128.845 159.441 129.028Z" fill="#00A79D"/>
<path d="M142.919 137.547L141.703 138.764C141.508 138.959 141.508 139.275 141.703 139.471L142.919 140.687C143.115 140.882 143.431 140.882 143.626 140.687L144.843 139.471C145.038 139.275 145.038 138.959 144.843 138.764L143.626 137.547C143.431 137.352 143.115 137.352 142.919 137.547Z" fill="#00AEEF"/>
<path d="M112.342 99.9231L112.195 100.401C112.173 100.475 112.214 100.553 112.288 100.576L112.767 100.722C112.841 100.745 112.919 100.703 112.941 100.629L113.088 100.151C113.11 100.077 113.069 99.999 112.995 99.9764L112.516 99.8302C112.443 99.8076 112.364 99.8492 112.342 99.9231Z" fill="#1C75BC"/>
<path d="M61.808 91.6947L60.1109 93.3917C59.8376 93.6651 59.8376 94.1083 60.1109 94.3817L61.808 96.0787C62.0814 96.3521 62.5246 96.3521 62.7979 96.0788L64.495 94.3817C64.7684 94.1083 64.7684 93.6651 64.495 93.3917L62.7979 91.6947C62.5246 91.4213 62.0814 91.4213 61.808 91.6947Z" fill="#00A79D"/>
<path d="M1.72185 168.558L0.18743 170.093C-0.0546954 170.335 -0.0546989 170.728 0.187426 170.97L1.72185 172.504C1.96397 172.746 2.35654 172.746 2.59867 172.504L4.13309 170.97C4.37521 170.728 4.37521 170.335 4.13308 170.093L2.59866 168.558C2.35654 168.316 1.96398 168.316 1.72185 168.558Z" fill="#00A79D"/>
<path d="M59.0243 76.7364L58.2253 77.5354C58.1003 77.6604 58.1003 77.863 58.2253 77.988L59.0243 78.787C59.1493 78.912 59.3519 78.912 59.4769 78.787L60.2759 77.988C60.4009 77.863 60.4009 77.6604 60.2759 77.5354L59.4769 76.7364C59.3519 76.6114 59.1493 76.6114 59.0243 76.7364Z" fill="#1C75BC"/>
<path d="M42.8432 48.8805L42.1997 49.5239C42.0943 49.6294 42.0943 49.8003 42.1997 49.9058L42.8432 50.5492C42.9486 50.6547 43.1196 50.6547 43.225 50.5492L43.8685 49.9058C43.9739 49.8003 43.9739 49.6294 43.8685 49.5239L43.225 48.8805C43.1196 48.775 42.9486 48.775 42.8432 48.8805Z" fill="#00A79D"/>
<path d="M24.8112 166.135L24.5588 166.495C24.5208 166.55 24.534 166.625 24.5883 166.663L24.9487 166.915C25.003 166.953 25.0778 166.94 25.1158 166.885L25.3682 166.525C25.4062 166.471 25.393 166.396 25.3387 166.358L24.9783 166.106C24.924 166.068 24.8492 166.081 24.8112 166.135Z" fill="#00A79D"/>
<path d="M37.8836 127.055L37.5936 127.345C37.5468 127.392 37.5468 127.468 37.5936 127.515L37.8836 127.804C37.9304 127.851 38.0064 127.851 38.0533 127.804L38.3432 127.515C38.39 127.468 38.39 127.392 38.3432 127.345L38.0533 127.055C38.0064 127.008 37.9304 127.008 37.8836 127.055Z" fill="#27AAE1"/>
<path d="M140.928 12.5976L138.764 14.7613C138.417 15.1089 138.417 15.6724 138.764 16.02L140.928 18.1837C141.276 18.5313 141.839 18.5313 142.187 18.1837L144.35 16.02C144.698 15.6724 144.698 15.1089 144.35 14.7613L142.187 12.5976C141.839 12.25 141.276 12.25 140.928 12.5976Z" fill="#00A79D"/>
<path d="M28.4968 122.868L27.057 124.584C26.8262 124.859 26.8621 125.269 27.1371 125.5L28.853 126.94C29.128 127.17 29.538 127.135 29.7688 126.86L31.2086 125.144C31.4394 124.869 31.4035 124.459 31.1285 124.228L29.4126 122.788C29.1376 122.557 28.7276 122.593 28.4968 122.868Z" fill="#00AEEF"/>
<path d="M123.376 31.2451L123.235 31.3865C123.215 31.406 123.215 31.4377 123.235 31.4572L123.376 31.5987C123.396 31.6182 123.427 31.6182 123.447 31.5987L123.588 31.4572C123.608 31.4377 123.608 31.406 123.588 31.3865L123.447 31.2451C123.427 31.2256 123.396 31.2256 123.376 31.2451Z" fill="#00A79D"/>
<path d="M59.854 155.57L59.0434 157.797C58.913 158.155 59.0977 158.551 59.4558 158.681L61.6828 159.492C62.0409 159.622 62.4369 159.438 62.5672 159.08L63.3778 156.852C63.5081 156.494 63.3235 156.098 62.9654 155.968L60.7383 155.157C60.3802 155.027 59.9843 155.212 59.854 155.57Z" fill="#00A79D"/>
<path d="M42.8144 154.244L41.0113 156.047C40.7223 156.336 40.7223 156.805 41.0113 157.094L42.8144 158.897C43.1034 159.186 43.5719 159.186 43.8609 158.897L45.6641 157.094C45.953 156.805 45.953 156.336 45.6641 156.047L43.8609 154.244C43.5719 153.955 43.1034 153.955 42.8144 154.244Z" fill="#00A79D"/>
<path d="M119.914 51.2247L118.288 53.0306C118.03 53.3179 118.053 53.7605 118.34 54.0192L120.146 55.6452C120.433 55.9038 120.876 55.8807 121.135 55.5934L122.761 53.7875C123.019 53.5002 122.996 53.0576 122.709 52.7989L120.903 51.1729C120.616 50.9142 120.173 50.9374 119.914 51.2247Z" fill="#27AAE1"/>
<path d="M40.1069 151.731L39.9863 152.299C39.9668 152.39 40.0254 152.481 40.1172 152.5L40.6845 152.621C40.7764 152.64 40.8667 152.582 40.8862 152.49L41.0068 151.923C41.0263 151.831 40.9677 151.74 40.8758 151.721L40.3085 151.6C40.2167 151.581 40.1264 151.639 40.1069 151.731Z" fill="#1C75BC"/>
<path d="M85.7796 133.347L83.7077 135.418C83.3758 135.75 83.3758 136.289 83.7077 136.621L85.7796 138.692C86.1115 139.024 86.6497 139.024 86.9816 138.692L89.0534 136.621C89.3854 136.289 89.3854 135.75 89.0535 135.418L86.9816 133.347C86.6497 133.015 86.1115 133.015 85.7796 133.347Z" fill="#1C75BC"/>
<path d="M66.2155 95.578L64.6811 97.1124C64.439 97.3545 64.439 97.7471 64.6811 97.9892L66.2155 99.5236C66.4576 99.7657 66.8502 99.7657 67.0923 99.5236L68.6267 97.9892C68.8689 97.7471 68.8689 97.3545 68.6267 97.1124L67.0923 95.578C66.8502 95.3358 66.4576 95.3358 66.2155 95.578Z" fill="#27AAE1"/>
<path d="M31.9777 8.5428L30.4504 10.0701C30.2043 10.3162 30.2043 10.7151 30.4504 10.9611L31.9777 12.4885C32.2237 12.7345 32.6226 12.7345 32.8687 12.4885L34.396 10.9611C34.642 10.7151 34.642 10.3162 34.396 10.0701L32.8687 8.5428C32.6226 8.29676 32.2237 8.29677 31.9777 8.5428Z" fill="#27AAE1"/>
<path d="M101.728 87.7325L100.18 89.2811C99.9338 89.5271 99.9338 89.926 100.18 90.172L101.728 91.7206C101.974 91.9666 102.373 91.9666 102.619 91.7206L104.168 90.172C104.414 89.926 104.414 89.5271 104.168 89.2811L102.619 87.7325C102.373 87.4865 101.974 87.4865 101.728 87.7325Z" fill="#27AAE1"/>
<path d="M24.2438 117.324L22.7094 118.858C22.4673 119.101 22.4673 119.493 22.7094 119.735L24.2438 121.27C24.4859 121.512 24.8785 121.512 25.1206 121.27L26.6551 119.735C26.8972 119.493 26.8972 119.101 26.6551 118.858L25.1206 117.324C24.8785 117.082 24.4859 117.082 24.2438 117.324Z" fill="#00A79D"/>
<path d="M95.5707 66.0712L94.0118 70.1323C93.7625 70.7819 94.087 71.5108 94.7366 71.7601L98.7977 73.319C99.4473 73.5684 100.176 73.2439 100.426 72.5943L101.984 68.5332C102.234 67.8835 101.909 67.1547 101.26 66.9053L97.1986 65.3464C96.5489 65.0971 95.8201 65.4215 95.5707 66.0712Z" fill="#00A79D"/>
<path d="M73.7209 166.754L72.1865 168.288C71.9443 168.53 71.9443 168.923 72.1864 169.165L73.7209 170.699C73.963 170.942 74.3556 170.942 74.5977 170.699L76.1321 169.165C76.3742 168.923 76.3742 168.53 76.1321 168.288L74.5977 166.754C74.3556 166.512 73.963 166.512 73.7209 166.754Z" fill="#27AAE1"/>
<path d="M82.8619 117.838L82.3316 118.368C82.2457 118.454 82.2457 118.593 82.3316 118.679L82.8619 119.209C82.9478 119.295 83.0871 119.295 83.173 119.209L83.7034 118.679C83.7893 118.593 83.7893 118.454 83.7034 118.368L83.173 117.838C83.0871 117.752 82.9478 117.752 82.8619 117.838Z" fill="#00A79D"/>
<path d="M145.7 110.699L143.706 112.693C143.389 113.009 143.389 113.522 143.706 113.838L145.7 115.832C146.016 116.149 146.529 116.149 146.845 115.832L148.839 113.838C149.156 113.522 149.156 113.009 148.839 112.693L146.845 110.699C146.529 110.382 146.016 110.383 145.7 110.699Z" fill="#00AEEF"/>
<path d="M31.272 115.458L30.2959 117.373C30.1404 117.678 30.2617 118.052 30.5668 118.207L32.4825 119.183C32.7876 119.339 33.1609 119.217 33.3164 118.912L34.2925 116.997C34.4479 116.692 34.3266 116.318 34.0215 116.163L32.1059 115.187C31.8008 115.031 31.4274 115.153 31.272 115.458Z" fill="#00A79D"/>
<path d="M84.7477 2.36853L82.888 4.22822C82.5912 4.52502 82.5912 5.00623 82.888 5.30303L84.7477 7.16272C85.0445 7.45952 85.5257 7.45951 85.8225 7.16272L87.6822 5.30303C87.979 5.00623 87.979 4.52502 87.6822 4.22822L85.8225 2.36853C85.5257 2.07173 85.0445 2.07174 84.7477 2.36853Z" fill="#00A79D"/>
<path d="M49.2243 98.2174L47.8454 99.5962C47.6267 99.8149 47.6267 100.169 47.8454 100.388L49.2243 101.767C49.443 101.986 49.7976 101.986 50.0163 101.767L51.3951 100.388C51.6138 100.169 51.6138 99.8149 51.3951 99.5962L50.0163 98.2173C49.7976 97.9987 49.443 97.9987 49.2243 98.2174Z" fill="#00A79D"/>
<path d="M77.7587 166.773L76.5613 168.934C76.3712 169.277 76.4951 169.709 76.838 169.899L78.9983 171.096C79.3413 171.286 79.7734 171.163 79.9635 170.82L81.161 168.659C81.3511 168.316 81.2272 167.884 80.8842 167.694L78.7239 166.497C78.381 166.307 77.9488 166.43 77.7587 166.773Z" fill="#1C75BC"/>
<path d="M122.096 115.551L121.789 116.043C121.739 116.123 121.763 116.228 121.843 116.278L122.335 116.585C122.414 116.635 122.519 116.61 122.569 116.531L122.876 116.039C122.926 115.959 122.902 115.854 122.822 115.805L122.33 115.497C122.251 115.448 122.146 115.472 122.096 115.551Z" fill="#27AAE1"/>
<path d="M107.205 97.1522L106.68 99.2578C106.597 99.59 106.8 99.9265 107.132 100.009L109.237 100.534C109.57 100.617 109.906 100.415 109.989 100.083L110.514 97.9772C110.597 97.645 110.395 97.3085 110.062 97.2256L107.957 96.7007C107.625 96.6178 107.288 96.82 107.205 97.1522Z" fill="#00A79D"/>
<path d="M101.719 57.347L99.4706 59.5956C99.1113 59.9548 99.1113 60.5373 99.4706 60.8966L101.719 63.1452C102.078 63.5045 102.661 63.5045 103.02 63.1452L105.269 60.8966C105.628 60.5373 105.628 59.9548 105.269 59.5956L103.02 57.347C102.661 56.9877 102.078 56.9877 101.719 57.347Z" fill="#00A79D"/>
<path d="M102.714 145.258L101.18 146.792C100.937 147.034 100.937 147.427 101.18 147.669L102.714 149.203C102.956 149.445 103.349 149.445 103.591 149.203L105.125 147.669C105.367 147.427 105.367 147.034 105.125 146.792L103.591 145.258C103.349 145.016 102.956 145.016 102.714 145.258Z" fill="#00A79D"/>
<path d="M50.6659 30.2772L49.1315 31.8116C48.8894 32.0537 48.8894 32.4463 49.1315 32.6884L50.6659 34.2228C50.9081 34.465 51.3006 34.465 51.5428 34.2228L53.0772 32.6884C53.3193 32.4463 53.3193 32.0537 53.0772 31.8116L51.5428 30.2772C51.3006 30.035 50.9081 30.035 50.6659 30.2772Z" fill="#00A79D"/>
<path d="M127.886 86.3606L127.262 88.864C127.163 89.2606 127.404 89.6622 127.801 89.7611L130.304 90.3852C130.701 90.4841 131.103 90.2428 131.201 89.8462L131.826 87.3429C131.924 86.9463 131.683 86.5447 131.287 86.4458L128.783 85.8216C128.387 85.7228 127.985 85.9641 127.886 86.3606Z" fill="#00A79D"/>
<path d="M140.827 101.171L139.709 103.031C139.533 103.325 139.628 103.705 139.921 103.882L141.781 104.999C142.075 105.176 142.456 105.081 142.632 104.787L143.75 102.927C143.926 102.634 143.831 102.253 143.537 102.077L141.677 100.959C141.384 100.783 141.003 100.878 140.827 101.171Z" fill="#27AAE1"/>
<path d="M59.5618 51.1517L57.8495 53.1215C57.5777 53.4341 57.6108 53.9078 57.9235 54.1795L59.8932 55.8919C60.2059 56.1636 60.6796 56.1305 60.9513 55.8179L62.6636 53.8481C62.9354 53.5355 62.9023 53.0618 62.5896 52.79L60.6199 51.0777C60.3072 50.8059 59.8335 50.8391 59.5618 51.1517Z" fill="#1C75BC"/>
<path d="M154.606 66.3231L153.406 68.4016C153.213 68.7364 153.328 69.1645 153.663 69.3578L155.741 70.5578C156.076 70.7511 156.504 70.6364 156.697 70.3016L157.897 68.2231C158.091 67.8883 157.976 67.4602 157.641 67.2669L155.563 66.0669C155.228 65.8736 154.8 65.9883 154.606 66.3231Z" fill="#00A79D"/>
<path d="M102.657 25.3106L102.177 25.7914C102.102 25.8656 102.102 25.9859 102.177 26.0601L102.657 26.541C102.732 26.6152 102.852 26.6152 102.926 26.541L103.407 26.0601C103.481 25.9859 103.481 25.8656 103.407 25.7914L102.926 25.3106C102.852 25.2364 102.732 25.2364 102.657 25.3106Z" fill="#00AEEF"/>
<path d="M33.7382 121.125L32.2038 122.659C31.9617 122.901 31.9617 123.294 32.2038 123.536L33.7382 125.07C33.9803 125.313 34.3729 125.313 34.615 125.07L36.1494 123.536C36.3916 123.294 36.3916 122.901 36.1494 122.659L34.615 121.125C34.3729 120.883 33.9803 120.883 33.7382 121.125Z" fill="#27AAE1"/>
<path d="M71.7859 163.184L71.521 163.608C71.48 163.673 71.4999 163.76 71.5655 163.801L71.9895 164.066C72.0551 164.107 72.1415 164.087 72.1824 164.021L72.4474 163.597C72.4884 163.532 72.4684 163.445 72.4029 163.404L71.9788 163.139C71.9133 163.098 71.8269 163.118 71.7859 163.184Z" fill="#00AEEF"/>
<path d="M169.177 29.9416L167.157 32.1859C166.831 32.5471 166.861 33.1035 167.222 33.4287L169.466 35.4495C169.827 35.7747 170.384 35.7455 170.709 35.3843L172.73 33.14C173.055 32.7789 173.026 32.2224 172.665 31.8972L170.42 29.8764C170.059 29.5512 169.503 29.5804 169.177 29.9416Z" fill="#00A79D"/>
<path d="M15.9061 104.183L15.7261 104.495C15.6958 104.547 15.7138 104.614 15.7664 104.645L16.0782 104.825C16.1308 104.855 16.1981 104.837 16.2284 104.785L16.4084 104.473C16.4388 104.42 16.4208 104.353 16.3682 104.323L16.0564 104.143C16.0038 104.112 15.9365 104.13 15.9061 104.183Z" fill="#27AAE1"/>
<path d="M156.484 20.2493L155.423 21.31C155.251 21.4818 155.251 21.7604 155.423 21.9322L156.484 22.9929C156.656 23.1647 156.934 23.1647 157.106 22.9929L158.167 21.9322C158.339 21.7604 158.339 21.4818 158.167 21.31L157.106 20.2493C156.934 20.0775 156.656 20.0775 156.484 20.2493Z" fill="#00A79D"/>
<path d="M56.6376 154.175L55.751 155.31C55.6082 155.492 55.6406 155.756 55.8234 155.899L56.9581 156.786C57.1409 156.929 57.4049 156.896 57.5477 156.713L58.4342 155.579C58.577 155.396 58.5446 155.132 58.3618 154.989L57.2271 154.103C57.0443 153.96 56.7804 153.992 56.6376 154.175Z" fill="#00A79D"/>
<path d="M134.507 39.2694L132.972 40.8038C132.73 41.0459 132.73 41.4385 132.972 41.6806L134.507 43.215C134.749 43.4571 135.141 43.4571 135.384 43.215L136.918 41.6806C137.16 41.4385 137.16 41.0459 136.918 40.8038L135.384 39.2694C135.141 39.0272 134.749 39.0272 134.507 39.2694Z" fill="#1C75BC"/>
<path d="M42.3789 10.6684L41.5662 12.583C41.4346 12.8931 41.5793 13.2512 41.8894 13.3829L43.804 14.1956C44.1142 14.3272 44.4723 14.1825 44.6039 13.8724L45.4166 11.9578C45.5482 11.6477 45.4036 11.2896 45.0935 11.1579L43.1788 10.3452C42.8687 10.2136 42.5106 10.3583 42.3789 10.6684Z" fill="#27AAE1"/>
<path d="M37.4391 71.3307L35.7421 73.0277C35.4726 73.2972 35.4726 73.7341 35.7421 74.0035L37.4391 75.7006C37.7086 75.97 38.1455 75.9701 38.4149 75.7006L40.112 74.0035C40.3814 73.7341 40.3814 73.2972 40.112 73.0277L38.4149 71.3307C38.1455 71.0612 37.7086 71.0612 37.4391 71.3307Z" fill="#00AEEF"/>
<path d="M60.3258 116.353L58.6075 118.071C58.3342 118.345 58.3342 118.788 58.6075 119.061L60.3258 120.78C60.5992 121.053 61.0424 121.053 61.3157 120.78L63.034 119.061C63.3074 118.788 63.3074 118.345 63.034 118.071L61.3157 116.353C61.0424 116.08 60.5992 116.08 60.3258 116.353Z" fill="#00A79D"/>
<path d="M29.8502 170.226L29.5956 170.481C29.5526 170.524 29.5526 170.593 29.5956 170.636L29.8502 170.891C29.8931 170.934 29.9628 170.934 30.0057 170.891L30.2603 170.636C30.3032 170.593 30.3032 170.524 30.2603 170.481L30.0057 170.226C29.9628 170.183 29.8931 170.183 29.8502 170.226Z" fill="#27AAE1"/>
<path d="M17.1718 149.199L15.1848 151.186C14.8646 151.506 14.8646 152.025 15.1848 152.345L17.1718 154.332C17.492 154.653 18.0112 154.653 18.3314 154.332L20.3184 152.345C20.6386 152.025 20.6386 151.506 20.3184 151.186L18.3314 149.199C18.0112 148.879 17.492 148.879 17.1718 149.199Z" fill="#00A79D"/>
<path d="M57.5464 97.8371L57.2777 98.1058C57.2348 98.1488 57.2348 98.2184 57.2777 98.2614L57.5464 98.5301C57.5894 98.573 57.659 98.573 57.702 98.5301L57.9707 98.2614C58.0137 98.2184 58.0137 98.1488 57.9707 98.1058L57.702 97.8371C57.659 97.7942 57.5894 97.7942 57.5464 97.8371Z" fill="#00AEEF"/>
<path d="M123.625 63.9845L122.982 64.7505C122.879 64.8732 122.895 65.0561 123.018 65.1591L123.784 65.8019C123.907 65.9048 124.09 65.8888 124.193 65.7661L124.835 65.0001C124.938 64.8774 124.922 64.6945 124.8 64.5915L124.034 63.9487C123.911 63.8458 123.728 63.8618 123.625 63.9845Z" fill="#00A79D"/>
<path d="M33.7692 70.8906L33.7051 71.2955C33.6947 71.361 33.7393 71.4225 33.8048 71.4328L34.2098 71.497C34.2752 71.5073 34.3367 71.4627 34.3471 71.3972L34.4112 70.9923C34.4216 70.9268 34.3769 70.8653 34.3114 70.855L33.9065 70.7908C33.841 70.7805 33.7796 70.8251 33.7692 70.8906Z" fill="#00A79D"/>
<path d="M149.054 146.374L148.543 148.585C148.462 148.935 148.681 149.284 149.03 149.365L151.242 149.876C151.592 149.956 151.941 149.738 152.022 149.388L152.532 147.177C152.613 146.827 152.395 146.478 152.045 146.397L149.833 145.886C149.484 145.806 149.135 146.024 149.054 146.374Z" fill="#00A79D"/>
<path d="M28.4549 28.1692L27.4366 29.1874C27.2726 29.3514 27.2726 29.6173 27.4366 29.7814L28.4549 30.7996C28.6189 30.9636 28.8848 30.9636 29.0488 30.7996L30.0671 29.7814C30.2311 29.6173 30.2311 29.3514 30.0671 29.1874L29.0488 28.1692C28.8848 28.0051 28.6189 28.0051 28.4549 28.1692Z" fill="#27AAE1"/>
<path d="M97.3972 156.402L96.6193 157.18C96.4944 157.305 96.4944 157.508 96.6193 157.633L97.3972 158.41C97.5221 158.535 97.7247 158.535 97.8497 158.41L98.6275 157.633C98.7525 157.508 98.7525 157.305 98.6275 157.18L97.8497 156.402C97.7247 156.277 97.5221 156.277 97.3972 156.402Z" fill="#1C75BC"/>
<path d="M65.2204 45.7474L63.6789 47.2889C63.4328 47.5349 63.4328 47.9338 63.6789 48.1799L65.2204 49.7213C65.4664 49.9674 65.8653 49.9674 66.1113 49.7213L67.6528 48.1799C67.8988 47.9338 67.8988 47.5349 67.6528 47.2889L66.1113 45.7474C65.8653 45.5014 65.4664 45.5014 65.2204 45.7474Z" fill="#1C75BC"/>
<path d="M19.2026 76.6865L18.7419 78.4058C18.669 78.6779 18.8304 78.9575 19.1025 79.0304L20.8218 79.4911C21.0939 79.564 21.3735 79.4026 21.4464 79.1305L21.9071 77.4112C21.98 77.1391 21.8186 76.8594 21.5465 76.7865L19.8272 76.3258C19.5551 76.2529 19.2755 76.4144 19.2026 76.6865Z" fill="#27AAE1"/>
<path d="M143.055 84.3024L142.614 86.2122C142.545 86.5135 142.733 86.8142 143.034 86.8838L144.944 87.3247C145.245 87.3943 145.546 87.2064 145.616 86.905L146.056 84.9952C146.126 84.6939 145.938 84.3932 145.637 84.3236L143.727 83.8827C143.426 83.8132 143.125 84.001 143.055 84.3024Z" fill="#00A79D"/>
<path d="M4.54004 174.101C24.85 133.081 48.33 93.7508 72.49 54.9208C76.36 48.6808 80.58 42.1508 84.51 35.9408C88.58 29.5008 98.84 30.8608 100.85 38.5608C101.71 41.5508 103.01 46.3308 103.86 49.3808C108.12 64.5708 113.53 85.1408 117.4 100.391C117.88 102.331 117.33 99.1008 115.59 97.3508C111.52 92.9508 105.32 94.4008 102.77 97.6708C112.96 85.4308 124.02 72.3208 134.53 60.2908C137.48 56.8708 140.5 53.4908 143.49 50.1008C143.77 49.7708 144.35 49.1008 145.02 48.6808C148.91 45.8808 154.78 48.4908 155.35 53.1808C155.54 54.9608 156.02 59.8608 156.2 61.7108C158.37 84.5208 160.24 107.341 160.89 130.271C154.54 108.231 149.38 85.9208 144.51 63.5308L143.31 57.9408L142.73 55.1408C143.26 59.4508 148.67 61.8508 152.25 59.2708C152.79 58.9408 153.44 58.2408 153.59 58.0408L153.54 58.1108C150.9 61.7808 148.28 65.4808 145.61 69.1108C136.24 82.0008 126 95.6508 116.36 108.271L116.25 108.411L116.2 108.481C115.87 108.751 117.03 107.761 114.79 109.911C108.94 114.391 101.85 110.381 100.77 104.921C99.56 100.701 96.89 91.4308 95.65 87.1008C92.15 74.4708 86.94 55.6708 83.71 43.1408C86.31 51.3808 95.85 50.8908 99.16 45.9708C98.46 47.0208 97.08 49.0308 96.36 50.1108C67.5 92.6808 37.7 134.731 4.55004 174.121L4.54004 174.101Z" fill="white" stroke="white" stroke-width="8" stroke-linecap="round" stroke-linejoin="round"/>
<path d="M4.54004 174.101C24.85 133.081 48.33 93.7508 72.49 54.9208C76.36 48.6808 80.58 42.1508 84.51 35.9408C88.58 29.5008 98.84 30.8608 100.85 38.5608C101.71 41.5508 103.01 46.3308 103.86 49.3808C108.12 64.5708 113.53 85.1408 117.4 100.391C117.88 102.331 117.33 99.1008 115.59 97.3508C111.52 92.9508 105.32 94.4008 102.77 97.6708C112.96 85.4308 124.02 72.3208 134.53 60.2908C137.48 56.8708 140.5 53.4908 143.49 50.1008C143.77 49.7708 144.35 49.1008 145.02 48.6808C148.91 45.8808 154.78 48.4908 155.35 53.1808C155.54 54.9608 156.02 59.8608 156.2 61.7108C158.37 84.5208 160.24 107.341 160.89 130.271C154.54 108.231 149.38 85.9208 144.51 63.5308L143.31 57.9408L142.73 55.1408C143.26 59.4508 148.67 61.8508 152.25 59.2708C152.79 58.9408 153.44 58.2408 153.59 58.0408L153.54 58.1108C150.9 61.7808 148.28 65.4808 145.61 69.1108C136.24 82.0008 126 95.6508 116.36 108.271L116.25 108.411L116.2 108.481C115.87 108.751 117.03 107.761 114.79 109.911C108.94 114.391 101.85 110.381 100.77 104.921C99.56 100.701 96.89 91.4308 95.65 87.1008C92.15 74.4708 86.94 55.6708 83.71 43.1408C86.31 51.3808 95.85 50.8908 99.16 45.9708C98.46 47.0208 97.08 49.0308 96.36 50.1108C67.5 92.6808 37.7 134.731 4.55004 174.121L4.54004 174.101Z" fill="url(#paint0_linear_3866_316593)"/>
</g>
<defs>
<linearGradient id="paint0_linear_3866_316593" x1="4.54004" y1="102.971" x2="160.88" y2="102.971" gradientUnits="userSpaceOnUse">
<stop stop-color="#100A09"/>
<stop offset="0.14" stop-color="#34346A"/>
<stop offset="0.32" stop-color="#1D346D"/>
<stop offset="0.84" stop-color="#00AEEF"/>
<stop offset="1" stop-color="#080505"/>
</linearGradient>
<clipPath id="clip0_3866_316593">
<rect width="184.23" height="178.1" fill="white"/>
</clipPath>
</defs>
</svg>