<svg width="33" height="16" viewBox="0 0 33 16" fill="none" xmlns="http://www.w3.org/2000/svg">
<rect x="0.5" y="0.5" width="32" height="15" rx="2.5" fill="#F6F7DE"/>
<path d="M5.11377 10.4849L6.38818 5.10156H7.1001L7.2627 5.99805L5.90479 11.5H5.14014L5.11377 10.4849ZM4.45898 5.10156L5.51367 10.4849L5.42578 11.5H4.57324L3.15381 5.10156H4.45898ZM8.3833 10.4629L9.4248 5.10156H10.73L9.31494 11.5H8.4624L8.3833 10.4629ZM7.5 5.10156L8.7832 10.5068L8.74805 11.5H7.9834L6.6167 5.99365L6.79248 5.10156H7.5ZM16.0734 7.70752V8.73584H12.7335V7.70752H16.0734ZM13.1246 5.10156V11.5H11.8063V5.10156H13.1246ZM17.0138 5.10156V11.5H15.6998V5.10156H17.0138ZM22.8142 10.4717V11.5H19.4085V10.4717H22.8142ZM19.8391 5.10156V11.5H18.5208V5.10156H19.8391ZM22.3704 7.70752V8.70947H19.4085V7.70752H22.3704ZM22.8098 5.10156V6.13428H19.4085V5.10156H22.8098ZM29.1508 5.10156V11.5H27.8324L25.2616 7.21094V11.5H23.9433V5.10156H25.2616L27.8368 9.39502V5.10156H29.1508Z" fill="#AF985C"/>
<rect x="0.5" y="0.5" width="32" height="15" rx="2.5" stroke="#CFB164" stroke-linejoin="round"/>
</svg>
